<svg xmlns="http://www.w3.org/2000/svg" xmlns:xlink="http://www.w3.org/1999/xlink" width="81" height="72" viewBox="0 0 81 72">
    <defs>
        <path id="a" d="M0 0h80.1v72H0z"/>
    </defs>
    <g fill="none" fill-rule="evenodd">
        <g>
            <mask id="b" fill="#fff">
                <use xlink:href="#a"/>
            </mask>
            <path fill="#F9F9F9" d="M20.657 70.78C18.961 70.412-1.42 67.111.08 42.763c1.5-24.347 3.383-31.669 11.308-34.348C19.31 5.738 38.574-6.938 53.689 5.114c15.116 12.053 31.427 22.863 24.954 42.108-6.472 19.244-7.532 25.664-24.42 24.682-16.888-.982-25.5.618-33.566-1.125" mask="url(#b)"/>
        </g>
        <path fill="#89CEEF" d="M63.503 25.52c-1.708-3.594-9.456-1.085-19.413 3.38-12.989-4.612-23.69-7.745-25.26-3.346-1.161 3.251 4.147 6.462 12.237 9.784-4.439 2.521-8.057 5.025-10.368 7.142-.715-1.537-1.741-2.9-3.778-3.287-1.319-.25-3.229-.048-2.605 1.529.09.23 1.437 3.082 1.547 3.313.494 1.039 1.016 2.132 1.794 2.994.844.934 1.78.98 2.992.934 5.247-.198 10.493-2.098 15.354-3.943 2.922-1.11 5.8-2.337 8.627-3.67 11.294 3.899 20.143 6.226 21.627 2.07 1.033-2.894-2.838-5.665-9.172-8.5 5.079-3.082 7.657-5.796 6.418-8.4"/>
        <path fill="#C0E8F5" d="M63.011 24.893c-1.734-2.422-8.968-.466-18.92 4.006-12.826-4.266-23.767-7.698-25.275-3.373-.735 2.108 6.937 6.824 14.627 9.933.366.148.401.648.06.846l-.009.005c-.045.026-2.375-.989-2.42-.962-4.124 2.395-8.222 5.203-10.375 7.132-.686-1.477-1.658-2.894-3.671-3.253-.944-.168-2.734-.468-2.14 1.05.087.22 1.38 2.961 1.486 3.183.364.765.727 1.553 1.23 2.24.366.502.833 1.188 1.428 1.426.588.236 1.332.04 1.942-.013.611-.054 1.222-.14 1.828-.234a39.66 39.66 0 0 0 4.334-.926c2.66-.727 5.275-1.616 7.854-2.588a124.895 124.895 0 0 0 9.215-3.908s8.992-4.065 11.83-5.958c5.088-3.06 8.59-6.352 6.976-8.606M57.097 33.953c-3.11 1.89-7.113 3.874-11.56 5.93 10.513 3.337 18.633 5.132 20.107 1.25 1.008-2.655-2.872-4.733-8.547-7.18"/>
        <path fill="#637AAB" d="M63.697 25.468c-.83-1.703-2.922-1.854-4.592-1.708-3.001.264-5.94 1.335-8.73 2.408-2.161.831-4.287 1.748-6.4 2.694l.273-.045c-3.913-1.388-7.845-2.748-11.849-3.86-2.839-.787-5.797-1.548-8.76-1.602-1.61-.03-3.735.156-4.71 1.641-1.15 1.755.14 3.6 1.481 4.78 1.283 1.129 2.787 2.004 4.292 2.8 2.013 1.063 4.103 1.978 6.208 2.844l.043-.119c-3.656 2.08-7.315 4.343-10.432 7.187l.372-.06c-.56-1.19-1.331-2.294-2.54-2.894-.975-.484-2.23-.688-3.295-.396-.373.102-.79.294-.969.66-.179.366-.057.771.097 1.122.374.854.787 1.693 1.185 2.537.475 1.007.915 2.048 1.552 2.966.42.605.94 1.196 1.64 1.472.65.255 1.376.26 2.062.215 3.695-.247 7.313-1.26 10.818-2.4 3.714-1.206 7.353-2.641 10.919-4.23.567-.253 1.093-.544 1.642-.83.108-.057.22-.126.336-.163.191-.062.211-.028.433.049.47.161.94.322 1.411.48 1.747.59 3.501 1.162 5.269 1.689 2.798.834 5.665 1.626 8.58 1.916 1.711.17 3.766.239 5.262-.76 1.37-.915 1.654-2.663.839-4.05-.575-.976-1.468-1.746-2.373-2.41-1.262-.926-2.644-1.688-4.041-2.39a62.162 62.162 0 0 0-2.477-1.172l-.007.097c2.013-1.226 4.146-2.578 5.635-4.44.93-1.163 1.487-2.599.826-4.028-.05-.108-.427.019-.388.104.663 1.433.09 2.86-.854 4.014-1.477 1.805-3.55 3.12-5.52 4.32-.047.028-.06.073-.007.096 1.562.702 3.11 1.447 4.588 2.315 1.106.649 2.197 1.366 3.126 2.256 1.226 1.173 2.182 2.912 1.107 4.512-.929 1.383-2.864 1.492-4.37 1.436-2.594-.096-5.168-.737-7.66-1.42-1.577-.433-3.14-.912-4.697-1.414a193.257 193.257 0 0 1-3.784-1.263c-.232-.08-.447-.197-.695-.158-.426.068-.836.34-1.204.548-.608.344-1.25.613-1.89.893-1.69.74-3.396 1.442-5.119 2.104-3.411 1.311-6.897 2.502-10.462 3.324-1.722.397-3.497.72-5.265.807-.764.037-1.583-.023-2.225-.482-.635-.454-1.1-1.136-1.482-1.804-.479-.84-.868-1.733-1.28-2.607-.36-.764-.741-1.521-1.071-2.298-.157-.367-.258-.821.024-1.157.362-.432 1.099-.425 1.61-.391a4.685 4.685 0 0 1 3.366 1.733c.392.485.695 1.033.96 1.596.052.112.314-.008.371-.06 3.077-2.807 6.698-5.044 10.306-7.097.043-.024.126-.084.043-.119-2.613-1.075-5.224-2.215-7.659-3.656-1.539-.91-3.263-2.004-4.205-3.576-.628-1.046-.694-2.368.139-3.33.852-.985 2.306-1.146 3.53-1.162 1.981-.028 3.972.352 5.896.787 2.553.578 5.065 1.328 7.556 2.125 1.4.448 2.793.915 4.182 1.393.74.255 1.479.512 2.217.772.326.115.71.33 1.052.372.204.025.384-.095.564-.176 2.674-1.193 5.376-2.341 8.144-3.303 2.044-.711 4.176-1.383 6.344-1.567 1.29-.11 2.852-.065 3.825.92.207.21.37.452.5.717.052.108.427-.022.387-.104"/>
        <path fill="#637AAB" d="M45.35 40.132c3.85-1.83 7.707-3.688 11.377-5.863.225-.134-.111-.204-.243-.126-3.642 2.16-7.47 4.002-11.29 5.818-.243.115-.023.256.155.17M31.04 35.514c.738.368 1.516.662 2.285.958.136.052.452-.144.232-.229-.744-.286-1.497-.573-2.21-.929-.127-.062-.478.115-.306.2M46.342 29.758c-.738-.353-1.481-.71-2.25-.987-.138-.05-.454.148-.233.228.744.27 1.464.618 2.177.96.127.06.478-.119.306-.201"/>
    </g>
</svg>
