<svg xmlns="http://www.w3.org/2000/svg" xmlns:xlink="http://www.w3.org/1999/xlink" width="86" height="72" viewBox="0 0 86 72">
    <defs>
        <path id="a" d="M10.037.05C4.487.078.009 4.604.035 10.16c.026 5.556 4.547 10.04 10.097 10.013 5.55-.027 10.028-4.552 10.002-10.109C20.108 4.524 15.614.05 10.085.05h-.048"/>
        <path id="c" d="M10.037.05C4.487.078.009 4.604.035 10.16c.026 5.556 4.547 10.04 10.097 10.013 5.55-.027 10.028-4.552 10.002-10.109C20.108 4.524 15.614.05 10.085.05h-.048"/>
        <path id="e" d="M10.037.05C4.487.078.009 4.604.035 10.16c.026 5.556 4.547 10.04 10.097 10.013 5.55-.027 10.028-4.552 10.002-10.109C20.108 4.524 15.614.05 10.085.05h-.048"/>
        <path id="g" d="M10.037.05C4.487.078.009 4.604.035 10.16c.026 5.556 4.547 10.04 10.097 10.013 5.55-.027 10.028-4.552 10.002-10.109C20.108 4.524 15.614.05 10.085.05h-.048"/>
        <path id="i" d="M10.037.05C4.487.078.009 4.604.035 10.16c.026 5.556 4.547 10.04 10.097 10.013 5.55-.027 10.028-4.552 10.002-10.109C20.108 4.524 15.614.05 10.085.05h-.048"/>
        <path id="k" d="M10.037.05C4.487.078.009 4.604.035 10.16c.026 5.556 4.547 10.04 10.097 10.013 5.55-.027 10.028-4.552 10.002-10.109C20.108 4.524 15.614.05 10.085.05h-.048"/>
        <path id="m" d="M10.037.05C4.487.078.009 4.604.035 10.16c.026 5.556 4.547 10.04 10.097 10.013 5.55-.027 10.028-4.552 10.002-10.109C20.108 4.524 15.614.05 10.085.05h-.048"/>
        <path id="o" d="M10.037.05C4.487.078.009 4.604.035 10.16c.026 5.556 4.547 10.04 10.097 10.013 5.55-.027 10.028-4.552 10.002-10.109C20.108 4.524 15.614.05 10.085.05h-.048"/>
        <path id="q" d="M10.037.05C4.487.078.009 4.604.035 10.16c.026 5.556 4.547 10.04 10.097 10.013 5.55-.027 10.028-4.552 10.002-10.109C20.108 4.524 15.614.05 10.085.05h-.048"/>
        <path id="s" d="M10.037.05C4.487.078.009 4.604.035 10.16c.026 5.556 4.547 10.04 10.097 10.013 5.55-.027 10.028-4.552 10.002-10.109C20.108 4.524 15.614.05 10.085.05h-.048"/>
        <path id="u" d="M10.037.05C4.487.078.009 4.604.035 10.16c.026 5.556 4.547 10.04 10.097 10.013 5.55-.027 10.028-4.552 10.002-10.109C20.108 4.524 15.614.05 10.085.05h-.048"/>
        <path id="w" d="M10.037.05C4.487.078.009 4.604.035 10.16c.026 5.556 4.547 10.04 10.097 10.013 5.55-.027 10.028-4.552 10.002-10.109C20.108 4.524 15.614.05 10.085.05h-.048"/>
        <path id="y" d="M10.037.05C4.487.078.009 4.604.035 10.16c.026 5.556 4.547 10.04 10.097 10.013 5.55-.027 10.028-4.552 10.002-10.109C20.108 4.524 15.614.05 10.085.05h-.048"/>
        <path id="A" d="M10.037.05C4.487.078.009 4.604.035 10.16c.026 5.556 4.547 10.04 10.097 10.013 5.55-.027 10.028-4.552 10.002-10.109C20.108 4.524 15.614.05 10.085.05h-.048"/>
        <path id="C" d="M10.037.05C4.487.078.009 4.604.035 10.16c.026 5.556 4.547 10.04 10.097 10.013 5.55-.027 10.028-4.552 10.002-10.109C20.108 4.524 15.614.05 10.085.05h-.048"/>
        <path id="E" d="M10.037.05C4.487.078.009 4.604.035 10.16c.026 5.556 4.547 10.04 10.097 10.013 5.55-.027 10.028-4.552 10.002-10.109C20.108 4.524 15.614.05 10.085.05h-.048"/>
        <path id="G" d="M10.037.05C4.487.078.009 4.604.035 10.16c.026 5.556 4.547 10.04 10.097 10.013 5.55-.027 10.028-4.552 10.002-10.109C20.108 4.524 15.614.05 10.085.05h-.048"/>
        <path id="I" d="M10.037.05C4.487.078.009 4.604.035 10.16c.026 5.556 4.547 10.04 10.097 10.013 5.55-.027 10.028-4.552 10.002-10.109C20.108 4.524 15.614.05 10.085.05h-.048"/>
        <path id="K" d="M10.037.05C4.487.078.009 4.604.035 10.16c.026 5.556 4.547 10.04 10.097 10.013 5.55-.027 10.028-4.552 10.002-10.109C20.108 4.524 15.614.05 10.085.05h-.048"/>
        <path id="M" d="M10.037.05C4.487.078.009 4.604.035 10.16c.026 5.556 4.547 10.04 10.097 10.013 5.55-.027 10.028-4.552 10.002-10.109C20.108 4.524 15.614.05 10.085.05h-.048"/>
        <path id="O" d="M10.037.05C4.487.078.009 4.604.035 10.16c.026 5.556 4.547 10.04 10.097 10.013 5.55-.027 10.028-4.552 10.002-10.109C20.108 4.524 15.614.05 10.085.05h-.048"/>
        <path id="Q" d="M10.037.05C4.487.078.009 4.604.035 10.16c.026 5.556 4.547 10.04 10.097 10.013 5.55-.027 10.028-4.552 10.002-10.109C20.108 4.524 15.614.05 10.085.05h-.048"/>
        <path id="S" d="M10.037.05C4.487.078.009 4.604.035 10.16c.026 5.556 4.547 10.04 10.097 10.013 5.55-.027 10.028-4.552 10.002-10.109C20.108 4.524 15.614.05 10.085.05h-.048"/>
        <path id="U" d="M10.037.05C4.487.078.009 4.604.035 10.16c.026 5.556 4.547 10.04 10.097 10.013 5.55-.027 10.028-4.552 10.002-10.109C20.108 4.524 15.614.05 10.085.05h-.048"/>
        <path id="W" d="M10.037.05C4.487.078.009 4.604.035 10.16c.026 5.556 4.547 10.04 10.097 10.013 5.55-.027 10.028-4.552 10.002-10.109C20.108 4.524 15.614.05 10.085.05h-.048"/>
        <path id="Y" d="M10.037.05C4.487.078.009 4.604.035 10.16c.026 5.556 4.547 10.04 10.097 10.013 5.55-.027 10.028-4.552 10.002-10.109C20.108 4.524 15.614.05 10.085.05h-.048"/>
        <path id="aa" d="M10.037.05C4.487.078.009 4.604.035 10.16c.026 5.556 4.547 10.04 10.097 10.013 5.55-.027 10.028-4.552 10.002-10.109C20.108 4.524 15.614.05 10.085.05h-.048"/>
    </defs>
    <g fill="none" fill-rule="evenodd">
        <path fill="#F9F9F9" d="M22.073 70.755C20.267 70.39-1.434 67.09.163 42.761 1.76 18.43 3.766 11.114 12.203 8.437c8.437-2.676 28.946-15.343 45.04-3.3 16.094 12.045 33.46 22.847 26.569 42.078-6.891 19.23-8.02 25.645-26 24.664-17.981-.982-27.15.618-35.739-1.124"/>
        <path fill="#E5E5E5" d="M64.74 17.309h-9.23v-2.22c0-.564-.461-1.025-1.024-1.025h-1.418c-.563 0-1.023.461-1.023 1.025v2.22H34.62v-2.306c0-.563-.46-1.024-1.024-1.024H32.18c-.563 0-1.023.46-1.023 1.024v2.306h-8.633a1.1 1.1 0 0 0-1.1 1.101v7.845a1.1 1.1 0 0 0 1.1 1.102h.928v27.887a3.373 3.373 0 0 0 3.372 3.376H60.66a3.373 3.373 0 0 0 3.371-3.376V27.357h.708a1.1 1.1 0 0 0 1.1-1.102V18.41a1.1 1.1 0 0 0-1.1-1.101"/>
        <path fill="#FFF" d="M61.189 58.77H27.738a3.335 3.335 0 0 1-3.333-3.337V24.638h40.117v30.795a3.335 3.335 0 0 1-3.333 3.337"/>
        <path fill="#6A79A8" d="M61.32 58.682H32.064c-1.374 0-2.75.007-4.124 0-1.73-.01-3.203-1.32-3.323-3.07-.026-.375-.008-.757-.008-1.133V24.584l-.335.143H63.01c.44 0 .882.009 1.322 0 .112-.003-.007.013-.014-.034a.263.263 0 0 1 0 .087c-.05.163 0 .425 0 .594v29.23c0 .628.04 1.268-.153 1.875-.405 1.274-1.547 2.18-2.89 2.203-.117.002-.442.18-.173.176 1.94-.033 3.596-1.497 3.624-3.484.005-.375 0-.75 0-1.123V25.147c0-.136.046-.37 0-.5-.006-.016 0-.045 0-.063 0-.026-.062-.034-.073-.034h-35.18c-1.62 0-3.25-.048-4.87 0h-.067c-.08 0-.335.027-.335.143V55.322c.003 1.357.67 2.604 1.922 3.2.64.305 1.297.336 1.982.336h32.953c.093 0 .463-.176.262-.176"/>
        <path fill="#E5E5E5" d="M33.579 27.885v27.447c0 .187.5.11.5-.043V27.842c0-.187-.5-.11-.5.043M43.838 27.879v27.447c0 .214.5.155.5-.03V27.848c0-.215-.5-.156-.5.03M54.498 27.918v27.447c0 .09.5.025.5-.11V27.81c0-.09-.5-.024-.5.11"/>
        <path fill="#E5E5E5" d="M27.426 36.688H57.13c1.358 0 2.743.12 4.1 0 .019-.002.038 0 .058 0 .17 0 .425-.394.151-.394H31.735c-1.358 0-2.743-.12-4.1 0h-.057c-.17 0-.426.394-.152.394M25.966 48.01H58.28c1.491 0 2.993.083 4.484 0 .021-.002.043 0 .065 0 .17 0 .426-.426.151-.426H30.667c-1.492 0-2.993-.084-4.485 0h-.064c-.17 0-.426.426-.152.426"/>
        <path fill="#6A79A8" d="M35.084 41.534c.743.386 1.31 1.11 1.798 1.771.309.417.602.85.863 1.299.065.111.333.03.391-.058a42.264 42.264 0 0 1 1.784-2.487 26.247 26.247 0 0 1 1.596-1.91c.469-.503.98-1.035 1.6-1.353.242-.125-.126-.16-.246-.098-.59.303-1.082.783-1.539 1.255a23.828 23.828 0 0 0-1.669 1.958 42.04 42.04 0 0 0-1.901 2.64l.391-.057c-.664-1.144-1.538-2.52-2.74-3.144-.105-.054-.481.105-.328.184"/>
        <path fill="#BBDFF5" d="M65.222 27.864H23.487c-.6 0-1.087-.488-1.087-1.089v-7.756c0-.6.487-1.088 1.087-1.088h41.735c.6 0 1.087.487 1.087 1.088v7.756c0 .601-.487 1.089-1.087 1.089"/>
        <path fill="#DEF3F9" d="M65.222 27.864h-40.65c-.602 0-1.089-.488-1.089-1.089v-6.586c0-.601.487-1.088 1.088-1.088h40.65c.601 0 1.088.487 1.088 1.088v6.586c0 .601-.487 1.089-1.087 1.089"/>
        <path fill="#6A79A8" d="M65.353 27.778H23.951c-.348 0-.666.014-.964-.233-.561-.465-.384-1.486-.384-2.133v-6.224c0-.572.23-1.133.87-1.172.278-.016.562 0 .84 0H64.318c.238 0 .477-.006.715 0 .777.023 1.073.63 1.073 1.313v6.257c0 .678.222 2.141-.797 2.193-.113.005-.442.184-.175.17.65-.033 1.302-.415 1.373-1.117.02-.203.006-.415.006-.618V19.687c0-.234.009-.47 0-.703-.026-.658-.512-1.11-1.16-1.14-.56-.024-1.128 0-1.689 0H31.195c-2.492 0-4.986-.02-7.478 0-.694.007-1.436.342-1.515 1.119-.066.646-.006 1.325-.006 1.974 0 1.952-.076 3.922 0 5.873.049 1.253 1.252 1.14 2.13 1.14H65.09c.09 0 .462-.172.263-.172"/>
        <path fill="#E5E5E5" d="M33.226 50.265c.028 5.89-4.719 10.687-10.602 10.715-5.883.028-10.675-4.724-10.702-10.614-.028-5.89 4.718-10.687 10.601-10.715 5.883-.028 10.675 4.724 10.703 10.614"/>
        <g>
            <g transform="translate(12.562 40.178)">
                <mask id="b" fill="#fff">
                    <use xlink:href="#a"/>
                </mask>
                <path fill="#FFF" d="M20.134 10.064c.026 5.557-4.452 10.083-10.002 10.109C4.582 20.199.062 15.716.035 10.16.009 4.603 4.486.077 10.037.05c5.55-.026 10.07 4.457 10.097 10.014" mask="url(#b)"/>
            </g>
            <g transform="translate(12.562 40.178)">
                <mask id="d" fill="#fff">
                    <use xlink:href="#c"/>
                </mask>
                <path fill="#F9F9F9" d="M19.93 10.119c-.004 4.106-2.551 7.952-6.427 9.392-3.942 1.465-8.506.062-11.096-3.21-2.535-3.202-2.866-7.765-.805-11.296C3.75 1.324 8.07-.587 12.229.395c3.911.922 6.96 4.235 7.58 8.206.079.503.116 1.01.121 1.518 0 .055.409 0 .407-.11-.045-4.304-2.854-8.196-6.953-9.536C9.434-.818 4.91.47 2.223 3.638c-2.83 3.334-3.166 8.28-.801 11.962 2.313 3.602 6.709 5.326 10.862 4.391 4.052-.912 7.277-4.218 7.93-8.349.085-.54.123-1.086.123-1.633 0-.054-.407 0-.407.11" mask="url(#d)"/>
            </g>
            <g transform="translate(12.562 40.178)">
                <mask id="f" fill="#fff">
                    <use xlink:href="#e"/>
                </mask>
                <path fill="#E5E5E5" d="M4.073 17.021c.07.191.21.61.21.61s-.2.507-.379.99c.126-.004.251-.008.377-.01 2.489-.055 4.978.021 7.467.032 1.023.005 2.046.013 3.07.021a27.913 27.913 0 0 0-.166-.504c-.28-.822-.413-.975.517-1.035-.009 0-.112-.473-.12-.502-.035-.144-.083-.287-.105-.433l-.074-.488c-.029-.19-.1-.61-.1-.61-.06-.004-.33.014-.41.02a3.856 3.856 0 0 1-.488.005.939.939 0 0 1-.629-.267c-.299-.284-.502-.631-.733-.967-1.154-1.454-2.58-2.095-4.332-1.24a5.313 5.313 0 0 0-1.315.93c-.484.458-.804 1.033-1.25 1.523a3.89 3.89 0 0 1-.913.74c-.163.096-.332.179-.494.275-.1.06-.426.228-.416.359.005.07.12.196.155.262.048.094.091.19.128.29" mask="url(#f)"/>
            </g>
            <g transform="translate(12.562 40.178)">
                <mask id="h" fill="#fff">
                    <use xlink:href="#g"/>
                </mask>
                <path fill="#FFF" d="M4.708 17.627l-.302.981c1.55 1.84 4.903 1.864 7.35 1.874 1.024.005 2.326-.328 3.368-1.063-.053-.168-.415-1.091-.472-1.259-.28-.822-.414-.975.517-1.035-.009 0-.112-.473-.12-.502-.035-.144-.083-.287-.105-.432l-.074-.49c-.029-.188-.1-.608-.1-.608a5.82 5.82 0 0 0-.41.019 3.858 3.858 0 0 1-.488.005.939.939 0 0 1-.629-.267c-.299-.284-.502-.631-.733-.967-1.154-1.454-2.58-2.095-4.332-1.24a5.313 5.313 0 0 0-1.315.93c-.484.458-.804 1.033-1.25 1.523a3.89 3.89 0 0 1-.914.74c-.162.096-.331.179-.493.275-.1.06-.314.213-.218.3.478.438.72 1.216.72 1.216" mask="url(#h)"/>
            </g>
            <g transform="translate(12.562 40.178)">
                <mask id="j" fill="#fff">
                    <use xlink:href="#i"/>
                </mask>
                <path fill="#FFF" d="M8.694 16.853l-1.347-.932c-.424-.294-.984-.568-1.348-.934-.34-.343.022-.634.286-.986.234-.31.488-.608.772-.874 1.115-1.046 2.532-1.314 3.907-.596.805.42 1.458 1.111 1.968 1.853.34.494-.074.809-.443 1.198a6.08 6.08 0 0 1-1.11.92c-.35.227-.756.423-1.168.361-.412-.061-.787-.486-.653-.881l-.864.871" mask="url(#j)"/>
            </g>
            <g transform="translate(12.562 40.178)">
                <mask id="l" fill="#fff">
                    <use xlink:href="#k"/>
                </mask>
                <path fill="#E5E5E5" d="M12.672 15.374c-.418.523-.901.968-1.495 1.283-.171.091-.52.288-.753.371l-.653-1.047c-.104-.167-.405-.086-.505.038l-.736.903-2.21-1.707c-.21-.162-.71.134-.443.34l2.455 1.896c.132.101.366.04.464-.08l.654-.803.337.54c.17.273.24.447.596.358 1.087-.271 2.09-1.055 2.774-1.91.229-.288-.315-.395-.485-.182" mask="url(#l)"/>
            </g>
            <g transform="translate(12.562 40.178)">
                <mask id="n" fill="#fff">
                    <use xlink:href="#m"/>
                </mask>
                <path fill="#E5E5E5" d="M6.166 15.21a.398.398 0 0 0-.292.135c-.05.064-.04.123.028.176l2.456 1.896c.113.087.32.032.405-.072l.692-.85.408.656c.142.232.213.349.51.274.982-.245 1.984-.936 2.75-1.896.029-.036.06-.088.042-.132-.017-.043-.076-.077-.155-.088-.1-.016-.238.007-.305.091-.46.577-.954 1-1.509 1.295l-.098.053c-.184.1-.463.25-.66.32l-.032.012-.67-1.077c-.035-.056-.097-.07-.142-.074a.392.392 0 0 0-.296.117l-.761.935-2.243-1.733a.207.207 0 0 0-.128-.037M8.5 17.545a.313.313 0 0 1-.193-.06L5.85 15.587c-.106-.082-.123-.192-.044-.294.112-.146.388-.228.538-.112l2.178 1.682.71-.872a.471.471 0 0 1 .366-.147.25.25 0 0 1 .208.114l.635 1.018c.188-.073.444-.21.616-.304l.099-.053c.545-.289 1.03-.705 1.482-1.272.089-.112.257-.142.384-.123.112.017.192.068.22.141.018.045.023.12-.053.215-.778.975-1.797 1.677-2.797 1.926-.357.09-.46-.08-.602-.312l-.345-.554-.617.757a.442.442 0 0 1-.329.147" mask="url(#n)"/>
            </g>
            <g transform="translate(12.562 40.178)">
                <mask id="p" fill="#fff">
                    <use xlink:href="#o"/>
                </mask>
                <path fill="#6A79A8" d="M12.533 15.191c-.378.504-.82.948-1.368 1.266a5.812 5.812 0 0 1-.502.253 14.97 14.97 0 0 1-.384.17c-.09.024-.083.036.022.038.08-.167.064.121.05-.046-.004-.044-.073-.124-.095-.161l-.234-.398-.224-.382c-.02-.035-.063-.083-.073-.124-.024-.096-.04.05.02-.027.11-.141-.298-.11-.378-.006l-.948 1.234.378-.076-2.316-1.896c-.11-.09-.487.07-.379.158l2.317 1.897c.1.082.305.019.378-.076l.948-1.235-.378-.006-.048.063c-.023.029-.017.053 0 .082l.487.828c.144.245.18.439.494.349 1.044-.299 1.971-1.046 2.611-1.898.108-.144-.3-.112-.378-.007" mask="url(#p)"/>
            </g>
            <g transform="translate(12.562 40.178)">
                <mask id="r" fill="#fff">
                    <use xlink:href="#q"/>
                </mask>
                <path fill="#FFF" d="M12.717 8.65c.005-3.19-1.393-5.777-3.123-5.78-1.73-.003-3.136 2.58-3.142 5.769v.572c-.003 1.768.145 3 .406 3.858.537 1.763 2.65 2.503 2.65 2.503s2.166-.719 2.723-2.293c.305-.862.482-2.147.485-4.058l.001-.572" mask="url(#r)"/>
            </g>
            <g transform="translate(12.562 40.178)">
                <mask id="t" fill="#fff">
                    <use xlink:href="#s"/>
                </mask>
                <path fill="#BBDFF5" d="M11.909 4.434c.27-.275.717-.742.726-1.146.155.45.192.962.333 1.43.078.26.157.525.172.796.023.42-.108.836-.308 1.206s-.465.699-.732 1.023c.045.04.094-.046.093-.106l-.012-.774c-.05.05-.22.13-.27.18l-.321.325a.623.623 0 0 0 .018-.55h-.088c-.138.179-.343.252-.54.361l.115-.029a1.035 1.035 0 0 0-.081-.378c-.097-.228-.287-.405-.38-.632-.145-.347.024-.312.185-.603.24-.434.747-.755 1.09-1.103" mask="url(#t)"/>
            </g>
            <g transform="translate(12.562 40.178)">
                <mask id="v" fill="#fff">
                    <use xlink:href="#u"/>
                </mask>
                <path fill="#BBDFF5" d="M5.489 4.624c.404-.802.921-1.53 1.664-2.097.721-.55 1.658-1.018 2.567-1.112.675-.07 1.308.216 1.825.631.436.35 1.202.869.783 1.45a7.817 7.817 0 0 1-2.47 2.211 7.81 7.81 0 0 1-1.526.667c-.234.074-.507.096-.692.254-.092.078-.385.483-.38.6-.003-.056-.19-.69-.264-.63-.247.196-.456.44-.613.714-.036.062-.085.134-.108.202-.024.072-.008.146-.005.223.004.093.004.185 0 .277 0 .043-.037.207-.016.238-.093-.132-.248-.21-.338-.345-.124-.185-.099-.42-.128-.63a6.129 6.129 0 0 0-.13-.67.86.86 0 0 0-.253.487c-.025.144-.028.291-.06.433-.044.195-.14.397-.07.584-.277-.232-.346-.675-.38-1.014a3.76 3.76 0 0 1 .08-1.13c.05-.237.11-.442.205-.668.096-.228.198-.454.309-.675" mask="url(#v)"/>
            </g>
            <g transform="translate(12.562 40.178)">
                <mask id="x" fill="#fff">
                    <use xlink:href="#w"/>
                </mask>
                <path fill="#6A79A8" d="M12.923 8.632c-.007-1.366-.225-2.762-.844-3.991-.42-.833-1.087-1.68-2.05-1.873-2.223-.445-3.336 2.444-3.631 4.13-.236 1.347-.194 2.78-.092 4.139.083 1.089.218 2.276.923 3.156.518.645 1.257 1.152 2.024 1.457.409.162.923-.197 1.27-.39.979-.546 1.737-1.294 2.036-2.395.372-1.37.362-2.825.364-4.233 0-.204-.411-.137-.411.035-.002 1.129-.008 2.262-.185 3.38-.158.993-.454 1.85-1.259 2.503a5.432 5.432 0 0 1-1.066.665c-.083.04-.508.18-.522.223.04-.123.228.075.044-.038-.096-.059-.216-.093-.318-.144a5.47 5.47 0 0 1-.958-.604c-1.76-1.393-1.6-3.981-1.59-6.007.006-1.228.19-2.482.689-3.613.355-.806.959-1.784 1.89-1.987 1.038-.226 1.87.7 2.33 1.512.697 1.234.937 2.71.945 4.11 0 .204.412.136.41-.035" mask="url(#x)"/>
            </g>
            <g transform="translate(12.562 40.178)">
                <mask id="z" fill="#fff">
                    <use xlink:href="#y"/>
                </mask>
                <path fill="#F2F2F2" d="M9.784 18.797c-.085-.297-.181-.487-.288-.492l-.167-.008c-.13-.006-.24.212-.246.486l.7.014" mask="url(#z)"/>
            </g>
            <g transform="translate(12.562 40.178)">
                <mask id="B" fill="#fff">
                    <use xlink:href="#A"/>
                </mask>
                <path fill="#BBDFF5" d="M10.924 20.702c-.103-.208-1.287-2.417-1.4-2.413l-.167.006c-.127.005-1.256 2.1-1.255 2.274.239.003 2.583.13 2.822.133" mask="url(#B)"/>
            </g>
            <g transform="translate(12.562 40.178)">
                <mask id="D" fill="#fff">
                    <use xlink:href="#C"/>
                </mask>
                <path fill="#6A79A8" d="M11.128 20.647a34.43 34.43 0 0 0-.825-1.514c-.177-.311-.39-.979-.82-.945-.46.036-.644.565-.844.92a21.8 21.8 0 0 0-.49.916c-.086.17-.228.38-.25.574-.008.067.07.076.121.077.942.02 1.881.113 2.823.133.141.003.436-.206.163-.212-.941-.02-1.88-.113-2.822-.133l.12.077c.046-.398.399-.868.586-1.21.133-.242.268-.483.414-.716.038-.061.127-.155.147-.223.004-.01.047-.051.043-.056-.192.05-.237.071-.135.063.055.004.054-.003-.003-.02.04.126.21.3.279.414.15.25.291.502.432.756.223.4.448.8.654 1.209.064.128.459-.007.407-.11" mask="url(#D)"/>
            </g>
            <g transform="translate(12.562 40.178)">
                <mask id="F" fill="#fff">
                    <use xlink:href="#E"/>
                </mask>
                <path fill="#BBDFF5" d="M9.22 17.149c.08-.087.176-.119.298.004.174.176.28.469.387.688.088.182.126.307-.124.344-.22.032-.477-.013-.7-.02-.358-.01-.132-.568-.046-.722.053-.092.112-.216.184-.294" mask="url(#F)"/>
            </g>
            <g transform="translate(12.562 40.178)">
                <mask id="H" fill="#fff">
                    <use xlink:href="#G"/>
                </mask>
                <path fill="#6A79A8" d="M9.406 17.143c-.142.004-.168.032-.079.084a.834.834 0 0 1 .076.089c.045.06.081.126.116.191.066.127.123.26.183.39.015.033.072.236.113.196-.07.067-.433-.013-.538-.02-.225-.015-.205-.198-.153-.382.054-.192.156-.395.282-.548.06-.074-.053-.09-.102-.091-.085-.002-.214.035-.271.103-.177.214-.39.594-.349.886.022.15.13.203.268.22.264.033.56.057.824.01.138-.023.366-.083.397-.246.03-.163-.138-.403-.205-.542-.085-.176-.203-.432-.406-.493-.188-.056-.394.038-.53.165-.07.068.063.09.103.091a.405.405 0 0 0 .271-.103" mask="url(#H)"/>
            </g>
            <g transform="translate(12.562 40.178)">
                <mask id="J" fill="#fff">
                    <use xlink:href="#I"/>
                </mask>
                <path fill="#6A79A8" d="M3.836 17.206c-.53.314-.931.77-1.181 1.332-.047.105.35.064.405-.058.217-.489.56-.903 1.022-1.176.235-.14-.127-.169-.246-.098" mask="url(#J)"/>
            </g>
            <g transform="translate(12.562 40.178)">
                <mask id="L" fill="#fff">
                    <use xlink:href="#K"/>
                </mask>
                <path fill="#6A79A8" d="M14.808 16.192c1.167.178 2.444.116 3.538-.365.928-.408 1.389-1.389 1.429-2.368.058-1.434-.757-2.726-1.15-4.06-.208-.706-.325-1.435-.452-2.16-.06-.342-.246-.827.078-1.095.175-.144.376-.172.475-.397.03-.069-.355-.036-.402.07-.097.223-.37.256-.522.425-.128.142-.153.31-.14.494.043.599.202 1.224.322 1.812.25 1.223.8 2.32 1.154 3.509.299 1.007.363 2.129-.244 3.04-.75 1.13-2.555 1.118-3.752.935-.097-.015-.446.143-.334.16" mask="url(#L)"/>
            </g>
            <g transform="translate(12.562 40.178)">
                <mask id="N" fill="#fff">
                    <use xlink:href="#M"/>
                </mask>
                <path fill="#6A79A8" d="M17.539 5.805c.112-.013.216-.046.242.09.025.128-.026.247-.04.372-.023.215.393.164.414-.028.021-.194.094-.383-.011-.571-.113-.203-.371-.197-.572-.173-.091.011-.214.063-.224.17-.009.1.106.15.19.14" mask="url(#N)"/>
            </g>
            <g transform="translate(12.562 40.178)">
                <mask id="P" fill="#fff">
                    <use xlink:href="#O"/>
                </mask>
                <path fill="#6A79A8" d="M17.172 5.875c-.041.276.088.604.382.674a.406.406 0 0 0 .287-.045c.036-.021.139-.111.042-.134-.234-.056-.34-.336-.306-.556.02-.13-.387-.058-.405.061" mask="url(#P)"/>
            </g>
            <g transform="translate(12.562 40.178)">
                <mask id="R" fill="#fff">
                    <use xlink:href="#Q"/>
                </mask>
                <path fill="#6A79A8" d="M5.64 14.814c-.362.36-.682.75-1.147.979-.25.122-.576.23-.767.44-.282.31-.008.469.124.783.207.49.152 1.005-.096 1.469-.104.195.307.187.387.037.177-.33.273-.674.248-1.05a1.807 1.807 0 0 0-.131-.566c-.09-.215-.327-.41-.092-.635.236-.226.645-.275.906-.477.332-.256.609-.578.905-.872.178-.177-.216-.229-.337-.108" mask="url(#R)"/>
            </g>
            <g transform="translate(12.562 40.178)">
                <mask id="T" fill="#fff">
                    <use xlink:href="#S"/>
                </mask>
                <path fill="#6A79A8" d="M6.314 14.579l.6-.657c.162-.178-.233-.178-.329-.073l-.599.656c-.162.178.233.179.328.074" mask="url(#T)"/>
            </g>
            <g transform="translate(12.562 40.178)">
                <mask id="V" fill="#fff">
                    <use xlink:href="#U"/>
                </mask>
                <path fill="#6A79A8" d="M15.144 18.868c-.052-.288-.203-.548-.313-.816-.056-.136-.115-.276-.14-.421-.053-.298.083-.407.395-.404.052 0 .328-.056.286-.157-.038-.096-.064-.177-.153-.228-.08-.047-.262.012-.324.068-.152.136-.011.286.146.314.076.014.355-.033.331-.154-.074-.39-.174-.766-.23-1.16-.025-.164-.09-.316-.107-.483-.017-.157.008-.239-.063-.396-.02-.044-.078-.048-.12-.047-.518.011-1.09.148-1.485-.275-.085-.091-.47.055-.38.151.448.48 1.11.341 1.699.328l-.121-.047c.078.172.02.324.057.494.03.132.092.247.112.385.057.393.157.769.231 1.16l.332-.155a.891.891 0 0 0-.082-.07l-.324.068c.036.046.06.098.074.156l.287-.156c-.392-.004-.972.027-.987.534-.016.505.385.935.471 1.42.021.117.43.022.408-.109" mask="url(#V)"/>
            </g>
            <g transform="translate(12.562 40.178)">
                <mask id="X" fill="#fff">
                    <use xlink:href="#W"/>
                </mask>
                <path fill="#6A79A8" d="M13.158 14.45c-.183-.251-.371-.498-.564-.74-.064-.08-.45.056-.383.141.184.233.365.468.54.707.075.103.444-.059.407-.109" mask="url(#X)"/>
            </g>
            <g transform="translate(12.562 40.178)">
                <mask id="Z" fill="#fff">
                    <use xlink:href="#Y"/>
                </mask>
                <path fill="#6A79A8" d="M8.52 11.142c.534.883 2.084 1.005 2.538-.043.036-.083-.354-.046-.403.066-.367.845-1.361.475-1.729-.132-.066-.11-.449.04-.407.11" mask="url(#Z)"/>
            </g>
            <g transform="translate(12.562 40.178)">
                <mask id="ab" fill="#fff">
                    <use xlink:href="#aa"/>
                </mask>
                <path fill="#6A79A8" d="M19.727 10.173c-.004 4.024-2.478 7.88-6.293 9.298-3.845 1.43-8.313-.053-10.823-3.225C.079 13.048-.256 8.494 1.802 4.968 2.79 3.278 4.28 1.872 6.054 1.04 7.926.16 10.056-.003 12.061.47c3.898.92 6.928 4.233 7.545 8.186.078.502.115 1.009.12 1.517.002.111.817 0 .815-.218-.046-4.323-2.876-8.217-6.99-9.558C9.498-.924 4.78.427 2.023 3.676c-2.831 3.336-3.17 8.294-.804 11.98 2.355 3.666 6.813 5.349 11.027 4.404 4.152-.931 7.5-4.214 8.172-8.473.086-.54.123-1.085.124-1.632 0-.109-.814-.001-.814.218" mask="url(#ab)"/>
            </g>
        </g>
        <g>
            <path fill="#BBDFF5" d="M34.7 22.235h-1.932a1.015 1.015 0 0 1-1.011-1.012v-4.559c0-.557.455-1.012 1.011-1.012h1.933c.556 0 1.011.455 1.011 1.012v4.559c0 .557-.455 1.012-1.011 1.012"/>
            <path fill="#FFF" d="M34.435 21.222h-1.401a1.015 1.015 0 0 1-1.012-1.012v-4.558c0-.558.455-1.013 1.012-1.013h1.401c.557 0 1.012.455 1.012 1.013v4.558c0 .557-.455 1.012-1.012 1.012"/>
            <path fill="#6A79A8" d="M34.455 21.078c-.475 0-.99.06-1.46-.006-.69-.097-.767-.731-.767-1.29V16.21c0-.446-.074-.987.343-1.286.25-.18.567-.14.858-.14.296 0 .595-.012.891 0 .663.024.921.524.921 1.114v3.694c0 .61.065 1.44-.786 1.486-.227.012-.317.304-.039.29.736-.04 1.23-.574 1.237-1.3.007-.62 0-1.24 0-1.86v-2.136c0-.569-.022-1.122-.597-1.434-.523-.284-1.356-.154-1.927-.144-.703.011-1.287.477-1.313 1.206-.046 1.294 0 2.597 0 3.892 0 .603-.055 1.245.55 1.607.55.328 1.44.168 2.05.168.23 0 .316-.29.039-.29"/>
            <path fill="#BBDFF5" d="M55.32 22.32h-1.87a1.015 1.015 0 0 1-1.012-1.013v-4.558c0-.557.456-1.013 1.012-1.013h1.87c.556 0 1.01.456 1.01 1.013v4.558c0 .557-.454 1.013-1.01 1.013"/>
            <path fill="#FFF" d="M55.086 21.307h-1.402a1.015 1.015 0 0 1-1.012-1.013v-4.558c0-.557.455-1.013 1.012-1.013h1.402c.556 0 1.011.456 1.011 1.013v4.558c0 .557-.455 1.013-1.011 1.013"/>
            <path fill="#6A79A8" d="M55.105 21.162c-.475 0-.99.06-1.46-.005-.69-.097-.767-.732-.767-1.29v-3.573c0-.446-.074-.987.343-1.286.25-.18.567-.14.858-.14.296 0 .595-.011.891 0 .663.024.921.525.921 1.114v3.694c0 .61.065 1.44-.786 1.486-.227.012-.317.305-.039.29.736-.04 1.23-.574 1.237-1.3.007-.62 0-1.24 0-1.86v-2.136c0-.568-.022-1.121-.597-1.434-.522-.284-1.356-.153-1.927-.144-.703.012-1.287.478-1.313 1.207-.046 1.293 0 2.597 0 3.891 0 .604-.055 1.246.55 1.607.55.328 1.44.169 2.05.169.23 0 .316-.29.039-.29"/>
            <path fill="#E5E5E5" d="M74.037 19.993c.022 4.64-3.717 8.418-8.35 8.44-4.635.022-8.409-3.72-8.43-8.36-.023-4.64 3.716-8.418 8.35-8.44 4.633-.022 8.408 3.721 8.43 8.36"/>
            <path fill="#FFF" d="M73.702 18.697c.807 4.348-2.059 8.527-6.401 9.335-4.342.808-8.517-2.06-9.324-6.408-.807-4.347 2.058-8.527 6.4-9.335 4.343-.808 8.518 2.061 9.325 6.408"/>
            <path fill="#6A79A8" d="M73.498 18.752c.566 3.176-.854 6.469-3.626 8.153-2.844 1.728-6.546 1.38-9.066-.77-2.482-2.118-3.409-5.69-2.266-8.749 1.156-3.096 4.21-5.198 7.526-5.08 3.662.129 6.741 2.871 7.432 6.446.036.186.444.082.407-.11-.652-3.373-3.385-6.023-6.784-6.545-3.342-.512-6.751 1.14-8.425 4.078-1.723 3.025-1.284 6.948 1.08 9.507 2.297 2.486 5.95 3.283 9.089 2.047 3.608-1.421 5.718-5.282 5.04-9.086-.033-.186-.441-.083-.407.109"/>
            <path fill="#FFF" d="M66.496 16.19v1.518a.244.244 0 0 1-.244.243h-.369a.244.244 0 0 1-.243-.243V16.19c0-.135.109-.244.243-.244h.37c.134 0 .243.11.243.244"/>
            <path fill="#6A79A8" d="M66.292 16.245v1.064c0 .133-.03.31 0 .44-.008-.037.002.209.073.122-.01.012-.11-.001-.125 0-.183.012-.343-.019-.397-.218-.079-.297 0-.722 0-1.028 0-.143.036-.336 0-.476.006.023-.003-.18-.028-.106-.061-.016-.058-.022.009-.016h.072c.175-.012.357.021.396.218.016.08.426-.015.407-.109-.096-.48-1.19-.347-1.263.115-.04.252 0 .537 0 .792 0 .227-.041.496 0 .72.09.483 1.191.342 1.263-.115.076-.48 0-1.026 0-1.512 0-.059-.407-.003-.407.11M66.303 22.999c0 .144.025.322-.053.451-.176.293-.473-.014-.5-.244-.015-.137-.02-.343.051-.463.194-.321.487.057.503.288.01.148.418.06.407-.11-.03-.458-.509-.642-.903-.503-.387.137-.488.463-.468.838.025.45.474.655.874.53a.709.709 0 0 0 .453-.387c.06-.142.045-.295.045-.445 0-.184-.41-.104-.41.045"/>
            <path fill="#FFF" d="M69.069 22.867h-6.086v-2.46a3.045 3.045 0 0 1 3.043-3.046 3.045 3.045 0 0 1 3.043 3.047v2.459z"/>
            <path fill="#BBDFF5" d="M68.696 22.67H62.61v-2.326a3.045 3.045 0 0 1 3.043-3.047 3.045 3.045 0 0 1 3.043 3.047v2.326z"/>
            <path fill="#6A79A8" d="M69.202 22.787h-5.71c-.08 0-.285.041-.357 0 .007.004.042.042.052-.032.014-.105 0-.221 0-.327v-1.013c0-.622-.057-1.286.116-1.89.309-1.082 1.254-1.99 2.401-2.078 1.06-.08 2.11.482 2.679 1.37.445.694.482 1.44.482 2.234v1.87c0 .057.407.002.407-.109v-2.268c0-1.136-.467-2.185-1.456-2.797-2.115-1.31-5.006.27-5.037 2.748-.01.808 0 1.618 0 2.426 0 .023.064.025.071.025h6.086c.082 0 .458-.159.266-.159M62.022 16.369c-.858.442-1.542 1.165-1.863 2.085-.392 1.126-.068 2.264.362 3.326.068.168.471.05.407-.11-.373-.92-.694-1.914-.458-2.913.223-.941.872-1.734 1.725-2.174.248-.128.024-.316-.173-.214"/>
            <path fill="#6A79A8" d="M62.3 17.52c-1.188.827-1.13 2.315-.75 3.553.061.2.468.09.407-.109-.34-1.11-.463-2.486.618-3.239.226-.157-.1-.326-.275-.205M69.791 16.575c.843.434 1.5 1.184 1.763 2.103.3 1.05-.025 2.098-.42 3.073-.053.13.352.085.407-.05.424-1.048.748-2.172.372-3.285-.301-.893-.967-1.611-1.798-2.04-.119-.06-.492.112-.324.199"/>
            <path fill="#6A79A8" d="M69.435 17.7c1.12.78 1.026 2.187.67 3.347-.04.128.366.073.406-.056.365-1.19.45-2.646-.697-3.445-.112-.078-.48.085-.38.154M55.595 31.32c.743.386 1.31 1.11 1.799 1.771.308.417.602.85.862 1.299.065.111.334.03.392-.057a42.292 42.292 0 0 1 1.783-2.488 26.264 26.264 0 0 1 1.596-1.91c.47-.503.981-1.035 1.6-1.353.242-.124-.125-.16-.246-.098-.59.303-1.082.783-1.538 1.255a23.842 23.842 0 0 0-1.67 1.959 42.077 42.077 0 0 0-1.9 2.64l.39-.057c-.664-1.145-1.538-2.52-2.74-3.144-.105-.055-.48.104-.328.183"/>
            <path fill="#FFF" d="M73.529 26.93h-2.471a.414.414 0 0 1-.414-.413v-2.474a.414.414 0 0 0-.414-.415h-2.47a.414.414 0 0 0-.415.415v2.474a.414.414 0 0 1-.413.414H64.46a.414.414 0 0 0-.413.414v2.474c0 .229.185.414.413.414h2.472c.228 0 .413.186.413.415v2.474c0 .229.186.414.414.414h2.471a.414.414 0 0 0 .414-.414v-2.474c0-.23.185-.415.414-.415h2.471a.414.414 0 0 0 .414-.414v-2.474a.414.414 0 0 0-.414-.414"/>
            <path fill="#FFC0BB" d="M74.123 27.525h-2.471a.414.414 0 0 1-.414-.414v-2.474a.414.414 0 0 0-.414-.414h-2.471a.414.414 0 0 0-.414.414v2.474a.414.414 0 0 1-.414.414h-2.47a.414.414 0 0 0-.415.415v2.474c0 .228.186.414.414.414h2.471c.229 0 .414.185.414.414v2.474c0 .229.185.414.414.414h2.471a.414.414 0 0 0 .414-.414v-2.474c0-.229.185-.414.414-.414h2.47a.414.414 0 0 0 .414-.414V27.94a.414.414 0 0 0-.413-.415"/>
            <path fill="#637AAA" d="M64.46 27.129a.216.216 0 0 0-.215.216v2.474c0 .12.096.216.215.216h2.472c.337 0 .611.275.611.613v2.474c0 .119.097.216.216.216h2.471a.216.216 0 0 0 .216-.216v-2.474c0-.338.275-.613.612-.613h2.471c.12 0 .216-.097.216-.216v-2.474a.216.216 0 0 0-.216-.216h-2.471a.613.613 0 0 1-.612-.612v-2.474a.216.216 0 0 0-.216-.217h-2.47a.216.216 0 0 0-.217.217v2.474a.613.613 0 0 1-.611.612H64.46zm5.77 6.605h-2.47a.613.613 0 0 1-.613-.612v-2.474a.216.216 0 0 0-.215-.216H64.46a.613.613 0 0 1-.611-.613v-2.474c0-.338.274-.612.611-.612h2.472a.216.216 0 0 0 .215-.216v-2.474c0-.338.275-.613.612-.613h2.471c.338 0 .612.275.612.613v2.474c0 .119.097.216.216.216h2.471c.337 0 .612.274.612.612v2.474a.613.613 0 0 1-.612.613h-2.471a.216.216 0 0 0-.216.216v2.474a.613.613 0 0 1-.612.612z"/>
        </g>
    </g>
</svg>
