<svg xmlns="http://www.w3.org/2000/svg" xmlns:xlink="http://www.w3.org/1999/xlink" width="81" height="72" viewBox="0 0 81 72">
    <defs>
        <path id="a" d="M0 0h80.1v72H0z"/>
    </defs>
    <g fill="none" fill-rule="evenodd">
        <g>
            <mask id="b" fill="#fff">
                <use xlink:href="#a"/>
            </mask>
            <path fill="#F9F9F9" d="M20.657 70.78C18.961 70.412-1.42 67.111.08 42.763c1.5-24.347 3.383-31.669 11.308-34.348C19.31 5.738 38.574-6.938 53.689 5.114c15.116 12.053 31.427 22.863 24.954 42.108-6.472 19.244-7.532 25.664-24.42 24.682-16.888-.982-25.5.618-33.566-1.125" mask="url(#b)"/>
        </g>
        <path fill="#E4E4E4" d="M48.595 64.26c.743.105 1.505.124 2.225.309.365.093.732.173 1.1.25.328.07.923.07 1.202.248.736.467-.72.588-1.014.604l-4.951.274c-.836.046-1.477.182-2.18.633-.63.405-1.293.957-2.08.964-1.131.009-1.605-.937-2.581-1.248-.586-.187-1.29-.084-1.899-.084-2.526 0-5.096.234-7.616-.009-.969-.093-1.946-.16-2.895-.393-1.256-.31-1.657-1.115-.225-1.54 1.687-.501 3.467-.35 5.202-.363l6.32-.045 4.905-.034c.552-.004 1.099-.134 1.652-.109.387.018.736.217 1.121.278.56.09 1.135.184 1.714.266"/>
        <path fill="#FFF" d="M45.333 50.114H30.14c-.995 0-1.802.806-1.802 1.8v11.554c0 .994.807 1.8 1.802 1.8h15.193c.995 0 1.802-.806 1.802-1.8V51.914c0-.994-.807-1.8-1.802-1.8"/>
        <path fill="#FFF" d="M46.008 50.114H29.466c-.996 0-1.803.806-1.803 1.8v1.03c0 .994.807 1.8 1.803 1.8h16.542c.995 0 1.802-.806 1.802-1.8v-1.03c0-.994-.807-1.8-1.802-1.8"/>
        <path fill="#637AAB" d="M28.186 54.74v7.862c0 .346-.026.707.013 1.052a1.898 1.898 0 0 0 1.87 1.702c.763.015 1.528 0 2.29 0h9.777c.986 0 1.972.003 2.959 0 1.311-.004 2.192-.913 2.192-2.216V54.7c0-.081-.387-.02-.387.103v7.616c0 .332.009.665 0 .997-.025.88-.59 1.753-1.542 1.764-.818.009-1.637 0-2.455 0H30.447c-.538 0-1.037-.15-1.405-.575-.414-.478-.469-1.047-.469-1.643V54.636c0-.08-.387-.02-.387.104"/>
        <path fill="#637AAB" d="M40.655 54.6H31.377c-.587 0-1.183.03-1.77-.001-1.108-.057-1.75-.991-1.75-2.028 0-.375-.031-.767.075-1.131.191-.65.743-1.174 1.431-1.235.114-.01.417-.198.163-.176-.846.075-1.647.543-1.944 1.372-.123.343-.112.694-.112 1.052 0 .37-.008.729.13 1.08.306.785 1.062 1.228 1.884 1.243.22.004.441 0 .662 0h10.347c.118 0 .42-.176.162-.176M47.106 54.112c-.11.113-.233.214-.37.293-.041.024-.124.084-.043.117.075.03.206-.007.272-.045.182-.106.348-.23.495-.382.062-.064-.054-.081-.096-.08a.402.402 0 0 0-.258.097"/>
        <path fill="#E4E4E4" d="M47.588 45.16c2.228.535 3.664 2.18 4.236 4.348.507 1.925.703 3.857.84 5.832.2 2.868.607 5.41.219 8.27-.104.769-.198 1.423-.554 1.66-.84.56-3.087-3.597-4.75-10.435-.276-1.135-.706-2.406-.779-3.473-.009-.134.01-.302.014-.436-.702 8.879-2.413 15.987-3.823 15.876l-.161-.013c-1.333-.105-1.99-5.906-1.62-13.45 0-.022-3.889-.629-4.262-.702-1.224-.238-2.445-.516-3.632-.905-1.645-.538-3.56-1.352-4.367-3a3.581 3.581 0 0 1-.335-1.132c-.062-.5-.127-1.133.094-1.59.451.205.923.364 1.406.476 1.261.292 2.614.367 3.902.371 1.406.005 2.812-.05 4.212-.178 1.715-.157 3.396-.486 5.073-.814 1.426-.279 2.862-.426 4.287-.705"/>
        <path fill="#EFEFEF" d="M41.234 52.873c.399.058.689.41.67.811-.338 7.218-.365 13.004.926 13.105l.161.013c.685.058 1.112-.973 1.324-1.461.573-1.324.89-2.767 1.174-4.175.36-1.786.625-3.59.845-5.399.124-1.027.233-2.056.33-3.086.038-.42.01-.857.08-1.271.076-.447.184-.75-.033-1.195-.192-.392-.516-.702-.847-.987a13.78 13.78 0 0 0-2.285-1.597c-.106-.06-.227-.14-.228-.261 0-.12.13-.208.25-.206.121.002.23.067.333.13.724.448 1.43.927 2.114 1.434.403.298 1.196 1.261 1.254 1.76.277 2.37.605 2.81.956 4.508.423 2.05.993 4.067 1.63 6.06.215.675 1.123 4.341 2.26 4.116a.309.309 0 0 0 .062-.02c.58-.25.672-1.16.732-1.693.242-2.143-.005-4.325-.179-6.465-.197-2.435-.346-5.116-.94-7.486-.486-1.846-1.697-3.43-3.51-4.125-2.139-.82-4.661.979-6.634 1.677-1.927.683-4.015.885-6.05.821-1.835-.058-3.677-.32-5.475-.689-.477-.098-.951-.254-1.437-.299-.206-.018.355 1.751.417 1.906.628 1.56 2.905 2.197 4.351 2.617 1.412.41 2.86.685 4.309.93 1.144.192 2.292.36 3.44.527"/>
        <path fill="#637AAB" d="M47.431 45.24c2.071.519 3.539 2.079 4.138 4.101.25.845.342 1.746.458 2.617.39 2.926.67 5.883.736 8.835.026 1.167.056 2.38-.17 3.531-.061.312-.143.605-.33.863-.024.034-.077.05-.004.03.018-.006-.083-.012-.123-.026a1.081 1.081 0 0 1-.362-.225c-.752-.664-1.179-1.762-1.56-2.66-.574-1.356-1.041-2.756-1.474-4.162a82.299 82.299 0 0 1-1.151-4.124c-.212-.84-.446-1.691-.575-2.55-.03-.2-.017-.394-.007-.596.004-.077-.377-.02-.387.103-.23 2.881-.565 5.758-1.082 8.602-.347 1.9-.732 3.852-1.463 5.65-.202.497-.765 2.041-1.483 1.25-.364-.4-.517-1.017-.645-1.527-.216-.856-.333-1.736-.423-2.612-.307-3.002-.265-6.043-.12-9.053l-.013-.018c-.114-.065-.298-.064-.425-.085-.353-.06-.705-.116-1.058-.173-.813-.131-1.627-.26-2.44-.393a28.028 28.028 0 0 1-3.501-.812c-1.22-.367-2.469-.813-3.497-1.584-.57-.427-1.063-.964-1.362-1.616-.381-.831-.394-1.763-.252-2.65l-.385.082c.023.138.43.2.528.226.382.102.77.181 1.159.258 1.035.206 2.086.214 3.128.37.697.104 1.4.065 2.101.038.789-.03 1.577-.065 2.364-.13 1.548-.126 3.078-.381 4.602-.674 1.729-.332 3.475-.551 5.203-.883.162-.032.335-.218.065-.166-1.422.274-2.864.431-4.287.706-1.452.28-2.903.568-4.373.74a38.482 38.482 0 0 1-4.447.262c-.752 0-1.492-.152-2.241-.2-.467-.031-.933-.061-1.394-.146-.387-.071-.773-.15-1.157-.237-.111-.026-.841-.132-.864-.268-.016-.098-.371-.003-.385.083-.173 1.085-.11 2.205.5 3.152.478.743 1.188 1.295 1.955 1.716 1.797.989 3.908 1.474 5.909 1.842 1.063.195 2.136.346 3.203.52.242.039.485.078.727.12.3.05.267.002.235.336-.12 1.226-.088 2.49-.087 3.72 0 1.928.062 3.866.31 5.778.137 1.052.264 2.38.896 3.277.328.465.942.546 1.4.203.695-.523 1.005-1.626 1.26-2.405.602-1.828.974-3.735 1.292-5.63.433-2.574.727-5.171.934-7.772l-.387.103c-.04.832.219 1.66.413 2.463a82.1 82.1 0 0 0 1.114 4.129c.449 1.507.935 3.008 1.526 4.466.405 1 .846 2.138 1.602 2.935.396.418 1.095.645 1.453.047.191-.32.251-.723.303-1.085.079-.55.106-1.107.12-1.662.078-3.1-.23-6.229-.597-9.304-.128-1.072-.252-2.154-.47-3.213-.348-1.701-1.364-3.286-2.91-4.127a6.046 6.046 0 0 0-1.428-.547c-.098-.024-.44.13-.315.162"/>
        <path fill="#637AAB" d="M42.385 47.087c1.014.418 1.913 1.012 2.746 1.72.66.563 1.528 1.173 1.489 2.14-.007.169.382.095.388-.044.04-.987-.754-1.603-1.44-2.184-.88-.744-1.806-1.385-2.877-1.827-.123-.051-.474.125-.306.195"/>
        <path fill="#FFF" d="M35.28 25.995c-.126.078-.25.16-.37.247a7.392 7.392 0 0 0-1.712 1.753c-.28.403-.458.904-.654 1.35-.31.71-.529 1.51-1.068 2.09-.395.426-.962.408-1.47.606-.087.034-.183.09-.195.183-.027.217.168.34.28.478.147.182.252.428.342.643.397.951-.171 1.806-.359 2.738l-.464 2.306c-.53 2.966-1.165 7.203-1.196 7.768 0 0 6.555 1.944 11.698.855 2.42-.512 7.892-2.066 7.892-2.066-2.01-8.187-5.482-23.435-12.725-18.951"/>
        <path fill="#FFF" d="M41.25 19.96c-.448-4.47-2.782-7.896-5.213-7.653-2.43.244-4.038 4.065-3.589 8.535l.08.801c.25 2.479.634 4.184 1.124 5.35.663 1.577 2.152 2.311 3.728 2.73.643.172 1.349.192 1.957-.078.545-.24.973-.694 1.283-1.202 1.288-2.105.946-5.34.711-7.681l-.08-.802"/>
        <path fill="#F2F2F2" d="M32.778 28.409a.104.104 0 0 0 .02.08c.05.07.144.112.212.169 1.114.935 2.666 1.48 4.335 1.41.985-.041 1.872-.362 2.658-.79.393-.213.762-.45 1.128-.69.2-.131.425-.237.596-.396.087-.082.104-.117.06-.221-.03-.075-.075-.18-.167-.22-.107-.044-.307.06-.394.112-1.152.705-2.355 1.855-4.009 1.747-2.049-.134-2.725-.754-3.733-1.469a.448.448 0 0 0-.597.096c-.04.058-.1.113-.11.172"/>
        <path fill="#637AAB" d="M33.381 28.21c1.104 1.039 2.6 1.605 4.12 1.502 1.58-.107 2.738-1.013 3.93-1.96.17-.136-.214-.136-.31-.06-1.101.876-2.171 1.756-3.646 1.815-1.386.055-2.732-.504-3.734-1.446-.097-.091-.46.054-.36.15"/>
        <path fill="#637AAB" d="M32.226 18.21c-.132 1.666.056 3.352.292 5.003.197 1.383.448 2.841 1.07 4.107l.343-.157-.004-.003c-.08-.068-.25-.011-.31.056a7.297 7.297 0 0 0-1.228 1.958c-.282.643-.538 1.32-.963 1.886a2.391 2.391 0 0 1-.789.7c-.236.122-.71.114-.872.342-.171.24.181.68.29.884.253.475.48.94.364 1.492-.135.638-.459 1.22-.588 1.862l-.31 1.536c-.28 1.397-.49 2.808-.698 4.217-.199 1.35-.45 2.719-.533 4.081-.004.054.03.09.081.105 2.341.7 4.84 1.084 7.277 1.177a19.347 19.347 0 0 0 5.166-.472c1.45-.338 2.888-.724 4.324-1.113.967-.263 1.934-.53 2.899-.803.07-.02.183-.082.16-.173-1.209-4.928-2.32-10.029-4.583-14.605-.545-1.105-1.169-2.179-1.959-3.128-.103-.124-.473.023-.355.164 1.5 1.803 2.454 4.03 3.262 6.209.92 2.478 1.632 5.03 2.288 7.59.33 1.288.644 2.581.961 3.873l.16-.173a186.44 186.44 0 0 1-6.542 1.753c-1.657.406-3.301.654-5.014.633-1.723-.022-3.445-.227-5.137-.549-.9-.17-1.802-.365-2.68-.628l.082.105c.07-1.167.282-2.338.448-3.494.214-1.49.42-2.99.716-4.467.213-1.056.39-2.085.766-3.097.127-.343.259-.704.239-1.076-.026-.467-.283-.894-.5-1.295-.04-.073-.08-.146-.118-.22l-.09-.18c-.057-.101-.03-.146.079-.134.109-.068.29-.081.416-.133.306-.128.58-.318.816-.55.542-.531.855-1.252 1.152-1.936.36-.826.73-1.56 1.333-2.242l-.31.057.003.003c.083.07.411-.02.344-.158-.601-1.227-.853-2.635-1.05-3.974-.246-1.67-.44-3.382-.307-5.068.014-.187-.378-.126-.39.035M41.55 26.445c.432-2.264.127-4.66-.15-6.928-.02-.162-.408-.07-.387.103.275 2.25.575 4.616.147 6.86-.034.18.36.125.39-.035"/>
        <path fill="#637AAB" d="M37.509 28.22c.694.52 1.422.397 2.01-.208.169-.173-.203-.235-.323-.112-.203.21-.441.406-.753.386-.24-.015-.45-.149-.636-.288-.135-.102-.474.09-.298.221M38.488 24.448c-.106.413-.501.953-.964.542-.253-.225-.32-.61-.256-.928.086-.426.517-.939.964-.542.262.232.307.603.256.928-.02.13.366.062.385-.056.089-.562-.164-1.2-.81-1.228-.567-.025-1.067.408-1.18.953-.114.553.174 1.184.788 1.227.594.041 1.062-.406 1.202-.952.03-.12-.355-.063-.385.056M43.912 23.701c-.216.7.799 1.117 1.238 1.442.923.684 1.684 1.744 2.247 2.728.577 1.006.993 2.112 1.156 3.262.128.904.11 2.906-1.308 2.655-.925-.165-1.72-.914-2.392-1.521-.085-.077-.441.068-.362.14 1.016.918 3.134 2.591 4.211.8.645-1.073.23-2.67-.15-3.765a10.493 10.493 0 0 0-1.974-3.38c-.415-.481-.855-.927-1.388-1.275-.367-.24-1.06-.612-.894-1.146.031-.101-.35-.05-.384.06"/>
        <path fill="#FFF" d="M39.668 19.597a7.6 7.6 0 0 0 2.346-.726c.517-.258 1.934-.88 1.869-1.606-.04-.434-.84-.696-1.167-.86a29.36 29.36 0 0 0-1.208-.567c-1.506.23-2.956.556-4.463.786l-3.275.5c-.251.039-1.125.212-1.529.292a.07.07 0 0 0-.016.133c.607.289 2.46 1.169 2.599 1.223 1.411.542 2.921.998 4.449.87.132-.012.264-.027.395-.045"/>
        <path fill="#637AAB" d="M39.63 19.663c.972-.144 1.866-.461 2.743-.893.55-.271 1.243-.579 1.58-1.12.421-.674-.39-1.007-.893-1.234-.189-.086-.374-.18-.56-.27-.241-.115-.547-.325-.81-.372-.103-.019-.193.006-.3.023-.36.056-.72.119-1.08.184-1.18.213-2.354.444-3.539.625-1.09.167-2.19.308-3.274.508-.381.07-.764.139-1.142.221-.135.03-.462.088-.313.278.05.062.215.102.289.137a796.435 796.435 0 0 0 1.478.7c1.799.848 3.764 1.48 5.774 1.22.095-.013.42-.178.17-.145-1.708.22-3.503-.237-5.052-.956-.517-.24-1.033-.486-1.549-.73-.228-.109-.458-.247-.695-.331-.027-.01-.147-.14-.177-.042.002-.007.153-.03.175-.034l.623-.122c1.815-.349 3.655-.55 5.473-.885.51-.094 1.02-.192 1.53-.285.475-.087 1.06-.304 1.515-.116.362.15.706.342 1.062.504.281.128.595.24.827.45.672.607-.47 1.293-.931 1.545-.896.49-1.834.858-2.848 1.009-.151.022-.349.171-.075.13"/>
        <path fill="#FFAD98" d="M41.471 16.1c.36-.422-.302-1.598-.525-1.95-.7-1.107-1.842-1.796-3.082-2.095-3.362-.81-6.092 1.978-5.684 5.414 3.375.69 8.078.053 9.291-1.37"/>
        <path fill="#637AAB" d="M41.65 16.098c.239-.336.074-.798-.065-1.14a5.242 5.242 0 0 0-.666-1.18c-.726-.96-1.83-1.567-2.99-1.833-1.993-.456-4.11.353-5.201 2.1-.65 1.04-.873 2.266-.742 3.476.003.03.053.04.073.045 1.869.373 3.836.373 5.716.081 1.291-.2 2.962-.517 3.875-1.55.1-.113-.281-.081-.357.004-.397.449-.982.703-1.537.897-.73.255-1.496.405-2.26.507a17.156 17.156 0 0 1-3.95.058c-.272-.03-1.05-.015-1.185-.259-.062-.111-.028-.43-.028-.557a5.363 5.363 0 0 1 .291-1.739 4.7 4.7 0 0 1 1.242-1.915c1.233-1.13 2.93-1.32 4.471-.762.928.337 1.762.923 2.327 1.74.302.435 1.003 1.505.629 2.03-.093.13.29.09.357-.003"/>
        <path fill="#637AAB" d="M36.102 12.331a3.72 3.72 0 0 1-.307-1.415c-.001-.062-.39-.005-.387.103.01.494.112.962.307 1.416.039.09.416-.036.387-.104"/>
        <path fill="#637AAB" d="M32.976 11.859a6.602 6.602 0 0 0 4.756-2.767c.1-.144-.287-.113-.36-.008a6.026 6.026 0 0 1-4.343 2.56c-.189.019-.321.241-.053.215"/>
        <path fill="#637AAB" d="M32.45 9.435a8.452 8.452 0 0 0 5.928 1.715c.104-.01.42-.18.167-.158a8.187 8.187 0 0 1-5.73-1.689c-.085-.065-.423.087-.364.132M31.346 10.738c-.347-.578-.194-1.313.418-1.636.233-.123.024-.339-.173-.235-.77.407-1.054 1.285-.598 2.043.091.153.46.004.353-.172M36.958 8.373c.69-.306 1.39.008 1.747.635.076.132.449 0 .357-.162-.467-.817-1.432-1.042-2.267-.671-.244.108-.025.282.163.198M38.515 7.742c.965.004 1.621.86 1.505 1.786-.025.196.37.145.391-.03.145-1.148-.732-2.034-1.861-2.038-.221-.001-.297.281-.035.282M30.708 11.748a1.79 1.79 0 0 1-.505-2.11c.023-.053-.339-.026-.381.07a1.833 1.833 0 0 0 .521 2.17c.078.063.416-.089.365-.13"/>
        <path fill="#FFEEA5" d="M42.474 22.867a.646.646 0 0 1 .078-.216c.125-.213.449-.464.706-.327.147.078.288.222.312.393.009.063-.043.172-.015.22.031.053.13.052.182.056.12.009.247.08.308.185.067.114-.003.227-.112.3-.22.15-.409.334-.7.318a.827.827 0 0 1-.605-.322.8.8 0 0 1-.154-.607"/>
        <path fill="#637AAB" d="M42.726 22.706c.044-.311.363-.444.526-.133.093.178.073.424-.082.562l.33.013c.133-.185.338.043.395.17.051.114.429-.01.387-.103-.193-.426-.877-.417-1.138-.056-.097.134.278.06.33.013.306-.272.3-.832-.146-.965-.39-.117-.927.137-.986.557-.018.124.368.053.384-.058M42.588 23.731c.224.344.573.334.866.183.038-.02.16-.085.114-.162-.042-.071-.207.002-.25.025-.128.065-.288-.112-.366-.232-.069-.105-.43.084-.364.186"/>
        <path fill="#FFF" d="M45.816 35.033c0 .853-3.166 1.545-7.072 1.545s-7.072-.692-7.072-1.545c0-.854 3.166-1.545 7.072-1.545s7.072.691 7.072 1.545"/>
        <path fill="#637AAB" d="M41.082 33.672c1.101.092 2.222.223 3.281.55.383.119 1.429.414 1.225 1-.032.093.345.048.383-.062.207-.593-.7-.9-1.111-1.041-1.129-.386-2.35-.524-3.532-.623-.097-.008-.446.16-.246.176M37.155 33.89a15.723 15.723 0 0 1 1.596-.077c.13 0 .416-.422.157-.423a15.721 15.721 0 0 0-1.596.076c-.128.013-.414.449-.157.423M34.337 34.146c.106-.032.212-.062.319-.09.074-.02.202-.084.218-.239.016-.152-.113-.178-.17-.163-.106.029-.213.06-.319.091-.075.022-.202.082-.218.239-.016.15.113.18.17.162M31.902 35.14c-.12-.31.208-.494.443-.615.235-.12.024-.32-.17-.221-.337.173-.835.488-.66.939.066.17.45.06.387-.104"/>
        <path fill="#FFEEA5" d="M32.594 34.384c.055-.315.1-.667.41-.799.386-.164.865.083 1.177.305.125.09.215.21.244.362.03.158.001.303.14.42.141.117.352.101.505.017.204-.112.332-.332.474-.507.057-.07.157-.09.248-.093a.312.312 0 0 1 .16.027c.073.04.11.123.158.191.179.25.39.195.604.026.229-.18.462-.32.736-.424.123-.046.265-.078.383-.02a.551.551 0 0 1 .158.141c.09.103.218.33.34.39.125.06.319-.015.45-.015.142-.023.46-.06.562-.173.028-.03.03-.078.017-.117-.013-.04-.038-.074-.058-.11a.706.706 0 0 1-.045-.563c.147-.454.715-.74 1.147-.45.092.06.164.147.234.231.167.202.304.404.29.68-.002.06-.011.124.019.176a.268.268 0 0 0 .062.068c.116.1.233.201.372.266.235.111.475-.001.715.087.118.044.238.088.337.165.1.076.178.19.18.316-.003-.17-.009-.321.068-.477.11-.222.316-.34.564-.264a.768.768 0 0 1 .498.492c.042.15-.064.306-.012.44.04.104.435.09.553.12.212.057.417.142.602.261.338.218.6.556.632.966.069.87-.835 1.5-1.676 1.738-.988.282-2.03.3-3.058.316-2.34.036-4.79.048-6.876-1.015-.29-.148-.545-.346-.604-.682-.022-.128.016-.303-.028-.421-.031-.085-.126-.132-.193-.197a1.537 1.537 0 0 1-.217-.264.388.388 0 0 1-.071-.173c-.008-.091.04-.176.073-.261.09-.236-.178-.45-.25-.672a1.071 1.071 0 0 1-.024-.504"/>
        <path fill="#FFF" d="M38.744 36.578c-3.735 0-6.79-.633-7.052-1.434l1.748 9.601h.018c.216.568 2.5 1.016 5.286 1.016 2.786 0 5.07-.448 5.286-1.016h.018l1.748-9.6c-.261.8-3.318 1.433-7.052 1.433"/>
        <path fill="#FFAD98" d="M38.744 39.646c-3.735 0-6.135-.676-6.396-.94l.548 3.158c.216.187 3.061.709 5.848.709 2.786 0 5.631-.522 5.848-.709l.548-3.158c-.261.264-2.662.94-6.396.94"/>
        <path fill="#637AAB" d="M38.869 39.565c-1.494-.003-2.996-.096-4.467-.366a11.305 11.305 0 0 1-1.257-.294c-.199-.06-.458-.12-.615-.265-.058-.053-.392.023-.376.118l.484 2.789c.055.313.033.399.352.493.7.208 1.45.295 2.17.386a27.8 27.8 0 0 0 6.7.03c.778-.09 1.564-.194 2.325-.384.27-.068.563-.098.623-.39.208-.995.35-2.008.523-3.01.02-.117-.328.012-.366.048-.131.121-.372.167-.537.216-.422.126-.855.215-1.288.29-1.408.247-2.843.336-4.271.34-.084 0-.438.16-.25.16 1.58-.004 3.17-.104 4.725-.403.449-.086.897-.187 1.331-.33.214-.07.471-.144.64-.3l-.366.047-.439 2.527c-.029.17-.073.344-.09.516-.012.134.031.083-.098.12-.7.2-1.443.292-2.165.38a27.38 27.38 0 0 1-6.356.029c-.766-.086-1.54-.187-2.29-.37-.096-.024-.354-.05-.422-.132-.046-.056-.042-.245-.055-.316l-.493-2.84-.376.119c.15.137.395.199.582.259.437.14.887.236 1.338.319 1.493.274 3.017.371 4.534.375.084 0 .438-.16.25-.16"/>
        <path fill="#637AAB" d="M38.87 36.498c-1.585-.003-3.187-.09-4.743-.401-.519-.104-1.047-.228-1.534-.443-.262-.115-.6-.274-.708-.562-.032-.086-.403.013-.387.104l1.53 8.398.218 1.203c.004.023.054.028.068.028-.085 0 .114.176.147.2.111.085.244.145.373.198.398.166.828.26 1.25.338 1.288.236 2.612.296 3.918.276 1.208-.018 2.434-.097 3.616-.362.467-.105 1.375-.258 1.603-.764l-.316.114h.018c.064 0 .3-.025.316-.114l1.529-8.398.219-1.203c.017-.094-.35-.018-.382.068-.104.276-.419.422-.673.53-.488.208-1.019.325-1.539.423-1.487.28-3.013.364-4.524.367-.083 0-.438.16-.25.16 1.711-.004 3.449-.099 5.124-.468.513-.113 1.031-.25 1.509-.472.275-.128.621-.305.735-.608l-.382.068-1.529 8.398-.219 1.203.316-.114h-.018c-.083 0-.275.023-.316.114-.097.215-.367.312-.572.386-.39.14-.8.22-1.208.287-1.177.193-2.382.244-3.573.226-1.083-.016-2.178-.086-3.242-.298-.441-.088-1.376-.206-1.593-.687-.01-.023-.047-.028-.068-.028.062 0 .053.046.038-.039l-.035-.193-.13-.708-.415-2.283-.937-5.147-.219-1.203-.387.104c.106.28.412.443.668.562.486.226 1.016.359 1.539.468 1.61.337 3.273.428 4.914.432.083 0 .438-.16.25-.16"/>
        <path fill="#FFF" d="M34.467 35.85c.083-.072.058-.196.137-.264.09-.078.173-.003.273-.021.222-.042.177-.4-.071-.372-.18.021-.308-.06-.478-.1-.183-.044-.611.003-.474.469.091.31.44.438.613.287M37.956 34.727l.057-.068c.106-.13.121-.375.056-.524-.057-.13-.162-.177-.26-.2-.148-.036-.352-.012-.455.111-.18.214.071.487-.27.607a3.108 3.108 0 0 1-.208.066c-.057.016-.116.031-.161.07-.045.037-.07.106-.04.157.03.049.094.06.151.066.098.011.21.018.281-.049.082-.076.069-.108.19-.1.099.006.204.07.272.139.013.012.026.027.044.03a.075.075 0 0 0 .04-.009.43.43 0 0 0 .21-.175c.035-.052.061-.084.093-.12M43.397 35.45l.048-.058c.09-.11.102-.317.047-.443-.048-.11-.136-.15-.219-.17-.125-.03-.297-.01-.384.095-.152.18.06.41-.228.513-.058.02-.117.039-.176.055-.048.014-.098.027-.136.059-.038.032-.06.09-.034.133.025.041.08.05.128.056.082.01.176.015.237-.042.07-.064.058-.09.16-.084a.386.386 0 0 1 .23.117c.01.01.022.023.037.025a.064.064 0 0 0 .034-.007.363.363 0 0 0 .178-.148.911.911 0 0 1 .078-.102M38.86 35.786a.12.12 0 0 1 .02-.017c.032-.023.073-.031.11-.046a.344.344 0 0 0 .208-.362c-.023-.152-.164-.245-.296-.298-.244-.096-.325-.019-.522.106-.116.074-.277.032-.395.108-.062.04-.086.122-.075.194.01.068.047.131.1.174.045.037.1.059.15.089.162.096.277.4.515.334.16-.045.113-.202.186-.282M33.697 34.358a.103.103 0 0 1-.01-.019c-.011-.03-.01-.063-.014-.095a.278.278 0 0 0-.243-.233c-.124-.011-.224.08-.291.174-.123.172-.079.25-.019.428.035.106-.03.223.007.33.02.057.08.091.139.096a.228.228 0 0 0 .155-.043c.038-.028.066-.067.099-.1.107-.108.367-.14.362-.338-.004-.135-.136-.128-.185-.2M36.191 35.894c.13-.117.2-.283.12-.465-.048-.108-.135-.147-.216-.167-.137-.032-.599.041-.693.155-.04.046-.045.112-.049.172-.037.582.551.563.838.305M41.882 36.25c.086-.07.17-.099.272-.142.078-.033.164-.105.149-.2-.015-.09-.114-.136-.203-.156-.109-.024-.268.016-.373-.028-.043-.018-.069-.061-.099-.097-.076-.09-.242-.182-.364-.137-.122.046-.093.215-.073.322.004.019.008.038.007.058-.006.124-.06.168.016.287a.415.415 0 0 0 .285.197c.093.015.189 0 .276-.036a.418.418 0 0 0 .107-.068M40.193 34.27c.028.008.058.022.082.026.04.007.08.009.118-.003a.125.125 0 0 0 .084-.077c.014-.043-.005-.092-.036-.125-.088-.096-.12-.062-.1-.202a.66.66 0 0 0-.018-.337.325.325 0 0 0-.238-.21c-.141-.04-.355-.004-.436.134-.105.18.219.31.088.482-.022.029-.056.046-.08.073-.047.052-.05.135-.015.196.035.06.1.1.167.117.081.02.165.014.241-.02.028-.013.066-.055.094-.06a.112.112 0 0 1 .049.006"/>
        <path fill="#637AAB" d="M33.129 34.774c-.31-.196-.41-.702-.153-.984.303-.334.81.038.888.383.036.162.424.063.387-.103-.137-.611-.933-.84-1.432-.513-.5.327-.496 1.108.008 1.427.13.082.477-.1.302-.21M39.548 34.112c-.189-.33-.138-.987.317-1.085.51-.109.874.591.77 1.007-.034.139.355.081.387-.05.17-.68-.497-1.298-1.164-1.163-.612.124-1.023.825-.697 1.394.073.128.446 0 .387-.103M39.162 35.975c-.007-.12.095-.283.214-.183.106.089.15.29.053.4-.056.065-.039.134.044.162a.292.292 0 0 0 .273-.074c.218-.249.132-.662-.202-.758-.353-.1-.792.174-.769.557.01.15.397.063.387-.104M36.332 35.926c.277-.17.336-.628-.022-.746-.288-.095-.73.065-.83.362l.385-.084c-.175-.364-.541-.535-.916-.39-.256.098-.016.16.137.1.08-.03.37.348.392.393.045.094.357-.002.384-.084.07-.207.234-.14.296.04.048.14.004.31-.124.388-.076.047-.033.075.025.094.077.025.209-.034.273-.073M41.837 34.57c.289-.144.541.29.55.485l.386-.104c-.09-.41.335-.828.642-.41.143.193.138.457.108.684-.006.047.032.059.072.067.234.049.435.11.64.236.107.065.447-.091.362-.143a2.314 2.314 0 0 0-.76-.282l.071.066c.064-.493-.087-1.013-.67-1.024-.494-.009-.964.398-.852.91.026.115.393.017.387-.104-.026-.606-.743-.683-1.169-.47-.23.116.12.146.233.09"/>
        <path fill="#FFEEA5" d="M41.417 32.198a.72.72 0 0 1 .087-.24c.138-.237.498-.516.784-.365.164.087.32.247.346.438.01.07-.047.191-.016.244.035.06.144.058.203.062.132.01.274.09.342.206.074.126-.004.252-.125.334-.245.166-.454.37-.778.352a.919.919 0 0 1-.673-.357.888.888 0 0 1-.17-.674"/>
        <path fill="#FFF" d="M42.567 32.933c.142-.07.24-.203.144-.365-.068-.114-.276-.028-.363.013-.016.008-.032.016-.049.016-.03 0-.056-.025-.067-.053-.036-.099.037-.231.036-.333 0-.166-.15-.193-.265-.112a.416.416 0 0 0-.181.428.628.628 0 0 0 .465.45c.085.017.191 0 .28-.044"/>
        <path fill="#637AAB" d="M41.68 32.038c.042-.3.396-.478.6-.204.127.168.106.45-.05.589l.292.154c.146-.203.422-.045.495.116.08.176.464.065.387-.104-.208-.46-.899-.562-1.208-.134-.135.186.172.261.292.154.347-.308.373-.924-.09-1.15-.458-.224-1.042.117-1.111.605-.029.202.367.155.392-.026M41.566 33.12c.247.308.613.339.943.2.061-.025.152-.11.1-.19-.054-.081-.193-.04-.258-.012-.158.066-.324-.047-.427-.176-.097-.122-.467.04-.358.178"/>
        <path fill="#FFF" d="M41.032 35.61a.72.72 0 0 0 .199-.16c.18-.207.328-.638.091-.859-.135-.126-.337-.223-.526-.186-.124.024-.21.107-.341.124a.755.755 0 0 0-.396.142c-.156.122-.315.377-.232.572.085.199.312.359.51.424a.891.891 0 0 0 .695-.057"/>
        <path fill="#637AAB" d="M41.25 35.541c.423-.195.59-.861.16-1.15-.388-.263-1.07-.045-1.223.397-.034.095.345.05.383-.06.044-.128.136-.265.284-.264.153 0 .293.122.357.252.117.236.072.628-.19.75-.065.03-.1.073-.042.12.058.046.218-.02.272-.045M40.246 35.446a.505.505 0 0 1-.224-.552c.04-.192-.357-.146-.393.029a.711.711 0 0 0 .32.748c.145.093.482-.106.297-.225"/>
        <path fill="#FFEEA5" d="M35.045 33.902a.717.717 0 0 1-.015-.255c.033-.272.253-.67.576-.644.184.015.392.1.491.264.037.061.032.195.082.231.055.041.155-.004.21-.023.442-.153.555.292.608.62.02.121.026.26-.056.351-.06.069-.156.093-.246.111-.396.08-.859.105-1.226-.103a.89.89 0 0 1-.424-.552"/>
        <path fill="#FFF" d="M36.443 34.38a.427.427 0 0 0 .222-.378c-.003-.083-.027-.156-.11-.18a.517.517 0 0 0-.32.008c-.086.032-.188.101-.279.048-.08-.047-.076-.143-.09-.223a.154.154 0 0 0-.02-.059c-.02-.03-.06-.043-.096-.042-.205 0-.281.223-.277.395.005.252.207.39.434.455.169.047.376.06.536-.024"/>
        <path fill="#637AAB" d="M35.241 33.689c-.078-.293.182-.792.508-.447.161.17.19.398.094.606l.386-.053c.031-.216.184-.256.459-.121.096.084.456-.064.36-.147-.349-.305-1.094-.178-1.205.321-.032.146.341.044.386-.053.205-.446-.161-.92-.636-.893-.451.025-.862.426-.739.89.033.124.42.022.387-.103M35.56 34.68c.337.163.708.063.968-.202.068-.07.025-.17-.051-.204-.097-.041-.205.007-.274.078-.121.124-.276.117-.421.047-.166-.08-.447.173-.222.281M37.307 34.317c.048-.344.444-.49.627-.15.106.2.059.435-.107.582l.32.1c.158-.218.425-.034.499.128.072.16.454.046.386-.104-.205-.454-.904-.54-1.205-.124-.15.209.212.197.32.1.347-.308.303-.93-.156-1.111-.447-.177-1.008.14-1.075.614-.026.184.368.128.39-.035M41.176 42.958c-.097.041-.362-.09-.474-.099-.228-.017-.447.056-.67.09-.593.088-1.246.01-1.834-.086a8.577 8.577 0 0 1-2.943-1.076c-1.832-1.075-3.414-2.731-4.171-4.73-.434-1.147-.616-2.382-.467-3.601.004-.032-.374-.005-.387.103-.559 4.586 3.46 8.885 7.887 9.48.55.073 1.145.129 1.697.057.187-.024.356-.071.546-.073.18-.003.322.068.496.085.19.018.365-.042.539-.115.232-.098-.134-.07-.219-.035"/>
        <path fill="#FFEEA5" d="M45.076 46.065a.703.703 0 0 1-.215-.125c-.204-.175-.41-.57-.213-.818.112-.142.293-.264.481-.256.07.003.176.079.233.059.063-.023.08-.129.095-.184a.439.439 0 0 1 .258-.293c.38-.137.536.264.562.568.036.421-.126.805-.52 1.004a.871.871 0 0 1-.68.045"/>
        <path fill="#FFF" d="M45.986 45.051c-.041-.148-.153-.266-.326-.202-.122.045-.075.26-.05.351.004.017.009.033.006.05-.005.03-.034.05-.063.055-.101.017-.216-.076-.314-.093-.16-.028-.213.11-.155.235.07.15.212.256.38.25a.615.615 0 0 0 .515-.369.45.45 0 0 0 .007-.277"/>
        <path fill="#637AAB" d="M45.065 45.87c-.23-.072-.367-.353-.312-.583.088-.37.472-.234.616.005l.359-.152c-.158-.164-.143-.56.116-.624.233-.058.182-.251-.052-.193-.404.1-.783.595-.423.969.086.09.443-.012.359-.152-.238-.394-.865-.399-1.187-.101-.37.341-.148.903.287 1.041.123.04.453-.14.237-.21M46.07 45.898c.243-.148.378-.4.326-.685-.014-.079-.404.008-.387.103.04.223-.036.45-.235.572-.065.04-.046.077.023.083.087.009.199-.027.273-.073"/>
        <path fill="#FFF" d="M47.049 46.748a.704.704 0 0 0 .195-.156c.175-.203.32-.624.09-.84-.133-.124-.33-.218-.515-.182-.069.013-.163.104-.222.092-.066-.013-.099-.115-.121-.167-.192-.45-.647-.173-.767.167-.163.463.217.995.66 1.142a.871.871 0 0 0 .68-.056"/>
        <path fill="#FFEEA5" d="M46.36 45.96a.153.153 0 0 1 .129-.01c.046.016.075.06.127.07.064.015.132-.009.197.006.16.035.157.19.056.289-.162.159-.45.18-.6-.016-.08-.103-.017-.279.092-.338"/>
        <path fill="#637AAB" d="M47.274 46.662c.4-.192.609-.83.112-1.058-.368-.17-.967.03-1.12.41-.03.072.333-.006.38-.071.261-.35-.082-.758-.449-.788-.08-.006-.439.136-.252.151.319.026.509.455.321.707l.38-.07c.13-.322.496-.26.61.04.08.21.016.53-.202.636-.229.11.132.085.22.043M46.341 46.611a.534.534 0 0 1-.332-.513c.006-.155-.382-.075-.386.05-.01.29.14.534.41.647.084.036.198.01.273-.037.048-.03.122-.11.035-.147"/>
        <path fill="#FFF" d="M41.361 48.434a.702.702 0 0 0 .195-.156c.175-.203.32-.624.09-.84-.133-.124-.33-.218-.515-.182-.121.024-.206.105-.334.121a.738.738 0 0 0-.387.14c-.153.119-.308.368-.227.558.083.195.305.35.499.415a.871.871 0 0 0 .68-.056"/>
        <path fill="#FFEEA5" d="M40.428 47.976c-.027-.152.023-.306.206-.323.13-.012.181.202.198.295.004.016.006.033.016.047.017.024.052.03.08.022.1-.028.162-.161.243-.22.133-.094.24.008.241.146a.407.407 0 0 1-.234.39.615.615 0 0 1-.624-.11.45.45 0 0 1-.126-.247"/>
        <path fill="#637AAB" d="M41.543 48.423c.433-.2.622-.845.213-1.176-.396-.321-1.067-.089-1.228.374-.051.148.34.102.389-.04.101-.293.449-.296.601-.043.12.198.104.588-.135.699-.242.112-.023.27.16.186M40.597 48.272a.495.495 0 0 1-.22-.538c.04-.19-.356-.142-.391.03-.06.29.065.571.312.73.143.092.482-.103.299-.222"/>
        <path fill="#FFEEA5" d="M34.178 66.386a.704.704 0 0 0-.228.102c-.22.153-.466.524-.297.791.097.153.265.294.453.305.123.007.225-.05.353-.034a.739.739 0 0 0 .41-.038c.178-.078.39-.28.36-.485-.032-.209-.208-.416-.38-.526a.871.871 0 0 0-.671-.115"/>
        <path fill="#637AAB" d="M34.076 66.342c-.48.088-.903.639-.587 1.108.294.437 1.017.31 1.28-.087.106-.16-.285-.14-.363-.022-.156.236-.482.133-.587-.1-.08-.175-.036-.615.21-.66.069-.013.214-.05.218-.14.005-.087-.102-.112-.17-.1M34.87 66.736a.55.55 0 0 1 .085.635c-.037.077.131.074.164.07.08-.01.184-.046.222-.124a.64.64 0 0 0-.111-.727c-.083-.09-.451.047-.36.146"/>
    </g>
</svg>
