<svg xmlns="http://www.w3.org/2000/svg" xmlns:xlink="http://www.w3.org/1999/xlink" width="107" height="72" viewBox="0 0 107 72">
    <defs>
        <path id="a" d="M0 .034h101.983V72H0z"/>
    </defs>
    <g fill="none" fill-rule="evenodd">
        <g>
            <mask id="b" fill="#fff">
                <use xlink:href="#a"/>
            </mask>
            <path fill="#EDF9FC" d="M26.3 70.78C24.14 70.414-1.81 67.114.1 42.778 2.01 18.443 4.408 11.124 14.498 8.447c10.089-2.678 34.614-15.348 53.86-3.3 19.244 12.046 40.011 22.851 31.77 42.087-8.24 19.235-9.59 25.652-31.091 24.67-21.502-.982-32.466.618-42.736-1.124" mask="url(#b)"/>
        </g>
        <path fill="#FFF" d="M98.132 39.829H61.715c-1.32 0-2.4-1.085-2.4-2.412v-.967a2.413 2.413 0 0 1 2.4-2.412h36.417c1.32 0 2.4 1.085 2.4 2.412v.967a2.413 2.413 0 0 1-2.4 2.412M101.113 32.038h-14.6a2.31 2.31 0 0 1 0-4.62h14.6a2.31 2.31 0 0 1 0 4.62M103.845 46.24h-14.6a2.31 2.31 0 0 1 0-4.618h14.6a2.31 2.31 0 0 1 0 4.619"/>
        <path fill="#FFF" d="M96.176 41.805c-.712 0-1.29-.442-1.29-.988s.578-.988 1.29-.988h-5.624c.712 0 1.289.442 1.289.988s-.577.988-1.289.988h5.624zM97.997 34.101c-.743 0-1.345-.462-1.345-1.031 0-.57.602-1.032 1.345-1.032h-5.87c.743 0 1.346.462 1.346 1.032 0 .57-.603 1.031-1.346 1.031h5.87zM10.076 17.318h36.416c1.32 0 2.4 1.086 2.4 2.413v.967a2.413 2.413 0 0 1-2.4 2.412H10.076c-1.32 0-2.4-1.086-2.4-2.412v-.967a2.413 2.413 0 0 1 2.4-2.413M7.094 25.11h14.6a2.31 2.31 0 0 1 0 4.618h-14.6a2.31 2.31 0 0 1 0-4.619M4.362 10.907h14.6a2.31 2.31 0 0 1 0 4.619h-14.6a2.31 2.31 0 0 1 0-4.62"/>
        <path fill="#FFF" d="M12.032 15.342c.712 0 1.289.442 1.289.988s-.577.988-1.29.988h5.624c-.712 0-1.289-.442-1.289-.988s.577-.988 1.29-.988h-5.624zM10.21 23.046c.743 0 1.346.462 1.346 1.032 0 .57-.603 1.031-1.346 1.031h5.87c-.743 0-1.345-.462-1.345-1.031 0-.57.602-1.032 1.345-1.032h-5.87z"/>
        <g>
            <path fill="#FFF" d="M66.206 28.26V60.76c0 .62-.501 1.124-1.119 1.124H36.474a1.121 1.121 0 0 1-1.118-1.124V28.26c0-.62.5-1.124 1.118-1.124h28.613c.618 0 1.119.504 1.119 1.124"/>
            <path fill="#FFF" d="M67.05 29.108v32.499c0 .62-.501 1.124-1.119 1.124H37.317a1.121 1.121 0 0 1-1.118-1.124V29.108c0-.62.5-1.124 1.118-1.124h28.614c.618 0 1.118.504 1.118 1.124"/>
            <path fill="#FFF" d="M38.257 39.743c.753.172.976 1.062 1.548 1.611a66.19 66.19 0 0 1 1.29-1.342l2 1.681s1.067-1.54 1.75-1.356c.331.09.603.294.87.5.16.125.33.311.543.32.296.01.656-.256.9-.402.265-.158.53-.33.824-.43.59-.2 1.145.022 1.615.39.444.347 1.048 1.53 1.048 1.53s.784-1.152 1.107-1.132c.309.018.583.135.829.32.275.208.884.774.884.774s.828-.448 1.248-.637c.518-.233.996.787 1.491.991.11.045 1.295-1.115 1.295-1.115s.85-.765 1.277-.773c.467-.009.814.095 1.345.517.44.35 1.047 1.175 1.047 1.175s1.515-1.8 2.046-1.94c.476-.126.876.158 1.27.38.611.347 1.114.378 1.77.133.272-.101.534-.224.795-.351v-2.045H36.2v2.588c.568-.564 1.217-1.58 2.058-1.387"/>
            <path fill="#FFF" d="M66.206 28.26V60.76c0 .62-.501 1.124-1.119 1.124H36.474a1.121 1.121 0 0 1-1.118-1.124V28.26c0-.62.5-1.124 1.118-1.124h28.613c.618 0 1.119.504 1.119 1.124"/>
            <path fill="#637AAB" d="M36.474 27.306a.953.953 0 0 0-.95.954V60.76c0 .526.426.954.95.954h28.613c.524 0 .95-.428.95-.954V28.26a.953.953 0 0 0-.95-.954H36.474zm28.613 34.747H36.474c-.71 0-1.287-.58-1.287-1.294V28.26c0-.713.577-1.293 1.287-1.293h28.613c.71 0 1.287.58 1.287 1.293V60.76c0 .713-.577 1.294-1.287 1.294z"/>
            <path fill="#FFF" d="M66.206 37.694s.487 18.853-1.772 22.734c-.713 1.226-31.286.014-30.766-.743 1.814-2.642 1.688-21.99 1.688-21.99h30.85z"/>
            <path fill="#637AAB" d="M33.888 59.65c.917.292 6.965.745 15.18.995 9.985.305 14.892.054 15.225-.309 2.094-3.598 1.788-20.606 1.748-22.472H35.525c.01 2.01.034 18.825-1.637 21.786m23.201 1.47c-2.354 0-5.17-.047-8.17-.14-3.767-.116-7.556-.295-10.397-.492-4.826-.333-4.94-.558-5.007-.693a.201.201 0 0 1 .015-.207c1.763-2.568 1.658-21.7 1.657-21.893a.17.17 0 0 1 .169-.17h30.85a.17.17 0 0 1 .168.165c.02.771.463 18.946-1.794 22.824-.096.164-.295.505-5.195.589-.7.012-1.47.018-2.296.018"/>
            <path fill="#FFF" d="M66.206 37.694s-.356 17.61-2.615 21.402c-.714 1.197-31.286.013-30.766-.727 1.813-2.58 2.53-20.675 2.53-20.675h30.85z"/>
            <path fill="#637AAB" d="M33.048 58.333c.934.285 6.974.726 15.171.97 9.985.299 14.895.053 15.231-.301 2.088-3.504 2.538-19.3 2.583-21.138H35.517c-.079 1.894-.78 17.584-2.469 20.47m23.189 1.443c-3.44 0-7.827-.101-12.175-.282-3.047-.126-5.826-.283-7.825-.442-3.417-.27-3.503-.447-3.567-.576a.2.2 0 0 1 .017-.206c1.764-2.51 2.493-20.403 2.5-20.584a.17.17 0 0 1 .169-.163h30.85a.168.168 0 0 1 .168.174c-.014.72-.382 17.698-2.639 21.485-.1.17-.337.566-6.828.592l-.67.002"/>
            <path fill="#ABE0F6" d="M67.05 29.108v9.434H36.2v-9.434c0-.62.5-1.124 1.117-1.124h28.614c.618 0 1.118.504 1.118 1.124"/>
            <path fill="#637AAB" d="M54.028 40.517c.329 0 .618.31.878.589.156.167.317.34.463.422.179-.118.721-.614 1.168-1.052.097-.087.916-.812 1.393-.82.546-.012.926.134 1.452.553.332.265.745.774.95 1.038.404-.467 1.51-1.706 1.995-1.834.49-.13.903.11 1.267.323l.13.074c.557.316 1.014.35 1.628.121a8.17 8.17 0 0 0 .685-.299v-1.768H35.524v1.99l.06-.068c.49-.549 1.098-1.233 1.867-1.056.544.124.839.569 1.123.998.12.182.243.368.385.53.381-.41 1.136-1.177 1.172-1.213a.168.168 0 0 1 .228-.011l1.862 1.565c.31-.415 1.164-1.452 1.824-1.273.375.101.682.339.929.53.034.026.069.055.104.084.114.096.23.195.342.199.195.006.471-.167.673-.294l.135-.084.112-.066c.233-.141.474-.287.745-.378.574-.195 1.17-.055 1.773.416.342.268.756.967.963 1.342.325-.448.785-.998 1.098-.98.324.02.634.139.92.354.218.165.627.538.808.704.238-.128.818-.435 1.153-.586a.55.55 0 0 1 .228-.05m1.336 1.37a.167.167 0 0 1-.067-.017c-.228-.094-.436-.317-.637-.532-.302-.324-.531-.547-.722-.461-.41.184-1.229.627-1.237.632a.168.168 0 0 1-.194-.025c-.006-.006-.606-.563-.871-.763a1.33 1.33 0 0 0-.737-.287c-.134.014-.584.508-.959 1.058a.168.168 0 0 1-.289-.018c-.163-.32-.661-1.207-1-1.473-.508-.397-.998-.519-1.459-.363-.235.08-.45.21-.679.347l-.113.068-.128.08c-.252.158-.567.355-.864.345-.227-.009-.404-.158-.546-.277-.032-.027-.063-.053-.094-.077-.283-.22-.523-.393-.81-.47-.414-.113-1.181.73-1.568 1.288a.169.169 0 0 1-.247.033l-1.881-1.58c-.265.27-.936.957-1.175 1.224a.168.168 0 0 1-.242.01c-.222-.213-.39-.467-.552-.713-.27-.408-.504-.761-.917-.856-.573-.13-1.087.445-1.54.953-.125.14-.244.272-.362.39a.168.168 0 0 1-.183.036.17.17 0 0 1-.104-.157v-2.588a.17.17 0 0 1 .169-.17h30.85a.17.17 0 0 1 .168.17v2.045a.17.17 0 0 1-.095.152 9.132 9.132 0 0 1-.81.358c-.71.265-1.264.224-1.911-.143l-.133-.077c-.337-.196-.656-.382-1.012-.288-.349.092-1.387 1.205-1.96 1.885a.168.168 0 0 1-.264-.008c-.006-.008-.6-.811-1.016-1.143-.52-.413-.835-.487-1.237-.48-.266.004-.858.45-1.168.73-1.025 1.003-1.284 1.161-1.404 1.161"/>
            <path fill="#637AAB" d="M35.524 37.524h30.513V28.26a.953.953 0 0 0-.95-.954H36.474a.953.953 0 0 0-.95.954v9.264zm30.682.34h-30.85a.17.17 0 0 1-.17-.17V28.26c0-.713.578-1.293 1.288-1.293h28.613c.71 0 1.287.58 1.287 1.293v9.434a.17.17 0 0 1-.168.17z"/>
            <path fill="#637AAB" d="M50.844 36.006c-2.418 0-3.83-1.31-3.89-1.366a.17.17 0 0 1-.007-.24.168.168 0 0 1 .239-.007c.013.013 1.38 1.274 3.658 1.274 2.282 0 3.664-1.38 3.677-1.393a.168.168 0 0 1 .239-.002.17.17 0 0 1 .001.24c-.06.06-1.495 1.494-3.917 1.494M46.48 32.691a.558.558 0 0 0-.557-.56.558.558 0 0 0-.556.56c0 .309.249.559.556.559.307 0 .556-.25.556-.559M56.194 32.691a.558.558 0 0 0-.556-.56.558.558 0 0 0-.556.56c0 .309.249.559.556.559.307 0 .556-.25.556-.559M47.347 29.347c-.138 0-.25-.095-.25-.212V26.11c0-.117.112-.212.25-.212s.25.095.25.212v3.025c0 .117-.112.212-.25.212M54.292 29.347c-.138 0-.25-.095-.25-.212V26.11c0-.117.112-.212.25-.212s.25.095.25.212v3.025c0 .117-.112.212-.25.212M49.829 64.91c-.138 0-.25-.077-.25-.17v-2.46c0-.094.112-.17.25-.17s.25.076.25.17v2.46c0 .093-.112.17-.25.17M51.895 64.91c-.138 0-.25-.077-.25-.17v-2.46c0-.094.112-.17.25-.17s.25.076.25.17v2.46c0 .093-.112.17-.25.17M46.794 48.844c.35.029.66-.05.931-.236.27-.187.421-.473.453-.86a1.073 1.073 0 0 0-.242-.788c-.185-.229-.45-.357-.793-.385a1.463 1.463 0 0 0-.583.05.928.928 0 0 0-.378.23c-.096.1-.19.232-.282.394-.092.163-.176.316-.253.46a.404.404 0 0 1-.221.173.808.808 0 0 1-.349.041.595.595 0 0 1-.406-.22.666.666 0 0 1-.151-.514c.016-.2.093-.404.23-.615.139-.21.331-.406.578-.587.247-.18.546-.317.9-.41a3.453 3.453 0 0 1 1.164-.088c.37.03.703.109 1 .235.297.126.55.295.76.505a1.909 1.909 0 0 1 .561 1.539c-.03.383-.14.705-.328.966-.188.26-.447.509-.777.745.285.185.52.39.708.613.187.223.322.465.405.724.083.26.113.536.09.827a2.588 2.588 0 0 1-.975 1.817 2.938 2.938 0 0 1-1.013.52c-.384.113-.8.151-1.25.115a2.948 2.948 0 0 1-1.21-.348 2.842 2.842 0 0 1-1.316-1.502c-.1-.274-.142-.498-.128-.67a.71.71 0 0 1 .258-.52.748.748 0 0 1 .551-.161.57.57 0 0 1 .302.12.45.45 0 0 1 .176.243c.155.549.336.962.542 1.24.206.276.515.432.927.465a1.438 1.438 0 0 0 1.283-.596c.162-.218.255-.479.28-.782.035-.448-.059-.81-.282-1.085-.224-.275-.553-.43-.988-.465a4.221 4.221 0 0 0-.356-.006 4.272 4.272 0 0 1-.31-.002c-.21-.017-.369-.083-.474-.198-.106-.114-.152-.266-.137-.454a.55.55 0 0 1 .242-.429c.147-.102.355-.142.626-.12l.235.02zM53.507 53.721l.42-5.234c-1.028.67-1.71.99-2.046.963a.58.58 0 0 1-.41-.228.625.625 0 0 1-.15-.46c.015-.196.088-.335.217-.417.13-.082.355-.183.675-.304.48-.181.867-.381 1.163-.6.296-.22.563-.47.8-.751.238-.282.392-.455.462-.518.07-.064.196-.089.375-.074a.588.588 0 0 1 .467.275c.11.167.153.389.13.665l-.53 6.585c-.061.771-.354 1.135-.876 1.093a.72.72 0 0 1-.542-.282c-.128-.169-.18-.406-.155-.713M63.123 52.352a.17.17 0 0 1-.044-.334c2.916-.789 5.68-1.854 6.157-4.284a3.345 3.345 0 0 0-.509-2.565c-.602-.895-1.614-1.534-2.775-1.753a.17.17 0 0 1 .062-.334c1.249.236 2.34.927 2.993 1.896a3.68 3.68 0 0 1 .56 2.822c-.246 1.25-1.105 2.298-2.553 3.114-1.173.66-2.543 1.079-3.847 1.432a.167.167 0 0 1-.044.006"/>
            <path fill="#FF907F" d="M43.341 52.432c.376-1.636-.41-3.475-2.256-3.964a3.23 3.23 0 0 0-3.811 1.901 3.252 3.252 0 0 0-2.385-3.55c-1.408-.373-2.824.282-3.568 1.518-.849 1.412-.431 2.843.376 4.133.744 1.19 3.769 5.588 3.769 5.588s5.613-2.763 6.789-3.794c.57-.5.93-1.148 1.086-1.832"/>
            <path fill="#FFAD98" d="M43.319 52.427c.26-1.203-.108-2.522-1.214-3.262-1.757-1.174-3.578.007-4.853 1.286.284-2.26-2.167-4.266-4.222-2.906-.771.51-1.247 1.417-1.306 2.344-.098 1.53.97 2.82 1.713 4.068a570.71 570.71 0 0 1 1.977 3.353c.015.026.276.488.284.484 0 0 5.38-2.499 6.557-3.53a3.4 3.4 0 0 0 1.064-1.837"/>
            <path fill="#637AAB" d="M43.42 52.389c.268-1.199-.072-2.517-1.007-3.338-1.015-.892-2.548-1.024-3.725-.386a3.372 3.372 0 0 0-1.499 1.658l.164.002c.182-1.548-.75-3.052-2.229-3.542-1.575-.522-3.277.274-4.016 1.74-.435.864-.424 1.834-.1 2.732.222.612.567 1.161.92 1.702.656 1 1.33 1.989 2.004 2.977.483.709.967 1.417 1.453 2.123.023.034.082.027.112.012.844-.415 1.681-.843 2.514-1.28 1.294-.675 2.613-1.349 3.822-2.17.791-.539 1.362-1.283 1.587-2.23.02-.08-.15-.06-.168.013-.21.88-.733 1.59-1.465 2.098-.536.37-1.103.696-1.67 1.015a93.707 93.707 0 0 1-3.81 2.016c-.293.148-.587.296-.883.441l.113.012a372.967 372.967 0 0 1-3.061-4.504c-.726-1.09-1.574-2.247-1.542-3.62.04-1.763 1.646-3.273 3.407-3.11 1.772.165 3.05 1.831 2.844 3.589-.01.083.14.056.163.002.52-1.233 1.769-2.046 3.11-1.95a3.084 3.084 0 0 1 2.703 2.09c.21.619.233 1.285.09 1.921-.017.08.153.06.17-.013"/>
            <path fill="#637AAB" d="M37.06 54.015a.168.168 0 0 1-.042-.006c-1.596-.418-3.27-.913-4.703-1.695-1.765-.963-2.811-2.199-3.11-3.672-.17-.84.016-1.671.555-2.47 1.125-1.673 3.499-2.774 5.228-3.09a.17.17 0 1 1 .06.334c-1.662.303-3.938 1.355-5.009 2.945-.485.722-.655 1.466-.504 2.213.588 2.899 3.985 4.168 7.568 5.107a.17.17 0 0 1-.043.334"/>
        </g>
    </g>
</svg>
