<svg xmlns="http://www.w3.org/2000/svg" xmlns:xlink="http://www.w3.org/1999/xlink" width="80" height="72" viewBox="0 0 80 72">
    <defs>
        <path id="a" d="M0 0h80v72H0z"/>
    </defs>
    <g fill="none" fill-rule="evenodd">
        <g>
            <mask id="b" fill="#fff">
                <use xlink:href="#a"/>
            </mask>
            <path fill="#F9F9F9" d="M20.631 70.78C18.937 70.412-1.419 67.111.08 42.763c1.498-24.347 3.38-31.669 11.294-34.348 7.914-2.678 27.153-15.354 42.25-3.302 15.096 12.053 31.386 22.863 24.922 42.108-6.465 19.244-7.523 25.664-24.39 24.682-16.866-.982-25.467.618-33.524-1.125" mask="url(#b)"/>
        </g>
        <path fill="#E4E4E4" d="M17.462 67.465c-.727-.09-.996-.195-.654-.32 2.384-.861 13.23-.83 18.49-.828 6.616.004 13.5-.016 19.465.197 2.497.089 8.15.172 9.127.464 2.564.768-15.457.972-18.375.981-4.864.016-23.905.018-28.053-.494"/>
        <path fill="#EFEFEF" d="M23.59 53.633c-.406 1.47-1.146 2.397-2.336 2.393.04 0 .08 0 .121-.002-.607-.015-1.192-.306-1.609-.743-.755-.79-.777-1.645-.777-2.621V19.298 14.71v-.108c0-.946.161-2.052-.1-2.972-.245-.86-.945-1.843-1.985-1.843l33.895-.004c.914-.012 1.867.62 2.06 2.34l.04 4.456v37.11l-29.31-.056z"/>
        <path fill="#FFF" d="M23.446 53.29c-.016.048-.03.095-.048.136-.446 1.049-1.808 2.251-2.846 1.112-.62-.68-.672-1.634-.672-2.5V14.03c0-.287-.008-.573-.009-.86 0-.41.04-.814-.032-1.22-.111-.638-.415-1.25-.896-1.692-.287-.264-.693-.472-1.094-.472l33.005-.004c.89-.012 1.819.611 2.006 2.307l.039 4.364v36.6h-.021l-7.334-.014-13.392-.025-5.715-.01c-.68-.001-2.943.07-2.943.07s-.012.096-.048.214"/>
        <path fill="#637AAB" d="M16.585 9.9h33.032c.395 0 .79-.01 1.185 0 1.325.035 1.902 1.403 1.902 2.551v41.186c0 .172.39.096.39-.043V13.013c0-.378.03-.77-.028-1.145-.16-1.021-.738-2.034-1.857-2.184-.182-.024-.365-.019-.547-.019h-33.93c-.157 0-.409.235-.147.235"/>
        <path fill="#E4E4E4" d="M18.903 12.122c-.215-1.826-1.379-2.497-2.378-2.309-1.072.202-1.915 1.192-1.851 2.268l4.23.04z"/>
        <path fill="#EFEFEF" d="M32.33 59.947c-.404 1.47-1.145 2.396-2.334 2.393l.12-.002c-.607-.016-1.191-.307-1.608-.744-.755-.79-.777-1.645-.777-2.621V48.635v-4.588-2.336c0-.946.16-2.053-.101-2.972-.245-.86-.945-1.843-1.985-1.843l33.895-.005c.914-.012 1.868.62 2.06 2.34l.04 6.684v14.088l-29.31-.056z"/>
        <path fill="#FFF" d="M31.48 59.311c.09.001-.062.796-.075.869-.073.4-.173.781-.549 1.01-.532.323-1.173.089-1.563-.338-.62-.68-.672-1.634-.672-2.501V41.139c0-.287-.008-.573-.009-.86 0-.41.04-.814-.031-1.22-.112-.638-.415-1.249-.897-1.692-.287-.264-.693-.471-1.094-.471l33.005-.005c.89-.012 1.819.612 2.006 2.308l.04 6.592v13.576L31.48 59.31"/>
        <path fill="#E4E4E4" d="M29.756 62.311c.999.188 2.163-.482 2.378-2.308H66.13c-.193 1.72-.867 2.352-1.782 2.34l-34.592-.032z"/>
        <path fill="#F9F9F9" d="M31.512 61.52c.222.009.407-.317.622-1.517H66.13c-.193 1.13-.867 1.546-1.782 1.538l-32.836-.02z"/>
        <path fill="#637AAB" d="M29.925 62.44l5.248-.005a74293.19 74293.19 0 0 0 17.292-.019l6.576-.008 1.54-.002c1.056-.002 2.111-.006 3.167-.005.792 0 1.646-.082 2.102-.813.298-.48.409-1.062.473-1.614.007-.06-.07-.064-.114-.064H36.4c-1.37 0-2.758-.065-4.126 0h-.06c-.059 0-.262.037-.273.122-.14 1.063-.762 2.404-2.063 2.188-.103-.017-.452.149-.245.183 1.549.257 2.512-1.055 2.694-2.429l-.273.122H65.54c.122 0 .334.042.45 0 .016-.005.043 0 .06 0l-.113-.064c-.065.566-.173 1.209-.52 1.681-.389.532-1.025.501-1.62.5-1.024 0-2.048.004-3.071.006l-1.502.002a54912.91 54912.91 0 0 1-23.153.027l-5.985.005c-.126 0-.419.187-.16.187"/>
        <path fill="#637AAB" d="M25.4 37H56.421c1.03 0 2.062-.006 3.093 0 1.245.007 1.937 1.145 2.006 2.285.022.363 0 .734 0 1.097V59.98c0 .118.389.046.389-.103V48.455v-7.174c0-1.417.29-3.475-1.226-4.276-.413-.218-.853-.222-1.304-.222H29.24c-1.176 0-2.353-.006-3.53 0h-.16c-.145 0-.412.217-.15.217"/>
        <path fill="#E4E4E4" d="M21.66 56l-.646-.002c.212.147.43.15.646.002M27.665 53.69v-.63l-.002-1.042-.002-1.321-.002-1.523-.002-1.644-.003-1.688-.002-1.652-.002-1.537-.002-1.343-.002-1.07c0-.335.014-.674-.01-1.01a3.289 3.289 0 0 0-.057-.42 2.83 2.83 0 0 0-.515-1.159 2.282 2.282 0 0 0-.156-.182 1.83 1.83 0 0 0-1.413-.575 1.772 1.772 0 0 0-.229.028c-1.29.242-1.701 1.195-1.826 2.249l-.002.018c-.04.345-.05.7-.05 1.044v7.284c0 1.99-.024 3.963-.024 5.954 0 .525-.093 1.016-.351 1.487-.242.44-.787 1.041-1.353 1.04l5.993.006.012-2.314z"/>
        <path fill="#637AAB" d="M21.337 56.323c1.85-.001 3.7-.006 5.55-.01.14 0 .414-.39.153-.39-1.85.004-3.7.008-5.55.01-.14 0-.414.39-.153.39"/>
        <path fill="#637AAB" d="M29.875 62.21c-2.265-.493-2.036-3.142-2.036-4.94V41.134c0-1.017.144-2.14-.31-3.089-.485-1.011-1.535-1.49-2.612-1.128-1.046.351-1.707 1.279-1.696 2.362.033 3.277 0 6.555 0 9.832 0 1.357.01 2.714 0 4.071-.006.78-.166 1.708-.783 2.303-.505.487-1.188.548-1.81.242-.818-.403-1.304-1.242-1.452-2.11-.152-.896-.078-1.86-.078-2.775V12.353c0-1.313-.831-2.777-2.324-2.67-1.27.09-2.333 1.181-2.295 2.45.002.045.09.054.118.054h3.412c.142 0 .414-.212.153-.212H14.75l.118.054c-.046-1.532 1.795-2.86 3.055-1.656.497.475.767 1.216.786 1.893.018.62 0 1.244 0 1.865v32.507c0 1.73-.015 3.461 0 5.191.01 1.274-.047 2.625.934 3.596.807.8 2.07.959 2.977.23 1.094-.88.99-2.343.99-3.595V39.355c0-.944.35-1.844 1.303-2.231 1.41-.572 2.463.915 2.537 2.16.015.24 0 .484 0 .724v10.537c0 2.735-.004 5.47.006 8.205.003.848.04 1.7.499 2.445.38.616.966 1.063 1.681 1.218.12.026.456-.156.24-.203"/>
        <path fill="#99F7B8" d="M58.45 52.319c-.006-3.028-2.49-5.478-5.549-5.473-3.059.006-5.534 2.464-5.528 5.492.005 3.028 2.489 5.478 5.548 5.472 3.059-.005 5.534-2.464 5.529-5.491"/>
        <path fill="#637AAB" d="M53.142 52.543l.003 1.503c.233-.046.413-.139.54-.279a.701.701 0 0 0 .19-.487c0-.2-.063-.353-.187-.462-.123-.108-.306-.2-.546-.275m-.442-1.018l-.002-1.315a1.215 1.215 0 0 0-.454.228c-.109.094-.163.236-.163.426 0 .18.052.317.154.41.102.092.257.176.465.25m.436-2.354v.37c.248.025.46.075.637.15s.331.19.464.343c.104.116.184.236.241.36a.825.825 0 0 1 .086.34.404.404 0 0 1-.126.296.42.42 0 0 1-.307.126c-.226 0-.374-.12-.44-.363a.782.782 0 0 0-.553-.569l.002 1.428c.287.077.515.148.685.212a1.42 1.42 0 0 1 .789.727c.078.175.117.367.117.575 0 .26-.061.505-.184.733a1.46 1.46 0 0 1-.545.559c-.24.144-.526.23-.856.258l.001.855a.802.802 0 0 1-.039.295c-.027.062-.085.093-.175.093-.083 0-.142-.025-.175-.075a.427.427 0 0 1-.05-.233l-.003-.927a2.21 2.21 0 0 1-.709-.187 1.678 1.678 0 0 1-.507-.358 1.495 1.495 0 0 1-.3-.446 1.173 1.173 0 0 1-.098-.454c0-.11.043-.209.13-.297a.437.437 0 0 1 .323-.133c.104 0 .192.024.264.072a.371.371 0 0 1 .15.202c.062.187.116.33.163.43.046.1.116.19.21.273a.942.942 0 0 0 .373.188l-.003-1.596a4.266 4.266 0 0 1-.777-.282 1.304 1.304 0 0 1-.507-.443c-.13-.192-.195-.44-.195-.741-.001-.394.125-.717.378-.969.252-.252.618-.399 1.096-.44v-.365c0-.192.072-.288.218-.288.147 0 .222.093.222.28"/>
        <path fill="#EFEFEF" d="M57.367 45.565H32.352c-.72 0-1.302-.577-1.302-1.29v-2.88c0-.712.583-1.289 1.302-1.289h25.015c.72 0 1.302.577 1.302 1.29v2.88c0 .712-.583 1.289-1.302 1.289"/>
        <path fill="#637AAB" d="M33.01 42.196h23.485c.12 0 .42-.4.162-.4H33.173c-.121 0-.422.4-.163.4M32.965 43.99H56.45c.08 0 .439-.4.253-.4H33.218c-.081 0-.44.4-.253.4M30.064 14.234h11.702c.121 0 .421-.4.163-.4H30.226c-.12 0-.42.4-.162.4M30.018 16.193h11.703c.081 0 .439-.4.253-.4H30.272c-.081 0-.44.4-.254.4M29.967 18.29h11.702c.12 0 .42-.4.162-.4H30.13c-.12 0-.42.4-.162.4M45.508 22.651h4.068c.12 0 .421-.4.162-.4H45.67c-.12 0-.42.4-.162.4M45.462 24.61h4.069c.08 0 .439-.4.253-.4h-4.068c-.081 0-.44.4-.254.4M45.474 26.706h4.069c.12 0 .42-.4.162-.4h-4.069c-.12 0-.42.4-.162.4M45.508 28.791h4.068c.12 0 .421-.4.162-.4H45.67c-.12 0-.42.4-.162.4M45.462 30.75h4.069c.08 0 .439-.4.253-.4h-4.068c-.081 0-.44.4-.254.4M45.474 32.846h4.069c.12 0 .42-.4.162-.4h-4.069c-.12 0-.42.4-.162.4M45.508 34.782h4.068c.12 0 .421-.4.162-.4H45.67c-.12 0-.42.4-.162.4M33.257 49.845h10.636c.12 0 .42-.4.162-.4H33.419c-.12 0-.42.4-.162.4M33.212 51.804h10.635c.08 0 .439-.4.253-.4H33.465c-.081 0-.44.4-.253.4M33.169 53.9h10.635c.12 0 .42-.4.162-.4H33.331c-.12 0-.42.4-.162.4M33.257 55.836h10.636c.12 0 .42-.4.162-.4H33.419c-.12 0-.42.4-.162.4"/>
        <path fill="#EFEFEF" d="M42.635 23.838H24.169a.903.903 0 0 1-.908-.898v-1.1c0-.496.406-.898.908-.898h18.466c.501 0 .908.402.908.898v1.1a.903.903 0 0 1-.908.898"/>
        <path fill="#637AAB" d="M26.403 22.677h13.848c.152 0 .411-.4.15-.4H26.551c-.151 0-.41.4-.149.4"/>
        <path fill="#EFEFEF" d="M42.635 27.849H24.169a.903.903 0 0 1-.908-.899v-1.099c0-.496.406-.899.908-.899h18.466c.501 0 .908.403.908.899v1.1a.903.903 0 0 1-.908.898"/>
        <path fill="#637AAB" d="M26.403 26.687h13.848c.152 0 .411-.4.15-.4H26.551c-.151 0-.41.4-.149.4"/>
        <path fill="#EFEFEF" d="M42.635 31.86H24.169a.903.903 0 0 1-.908-.9v-1.099c0-.496.406-.898.908-.898h18.466c.501 0 .908.402.908.898v1.1a.903.903 0 0 1-.908.898"/>
        <path fill="#637AAB" d="M26.403 30.698h13.848c.152 0 .411-.4.15-.4H26.551c-.151 0-.41.4-.149.4"/>
        <path fill="#EFEFEF" d="M42.635 35.87H24.169a.903.903 0 0 1-.908-.899v-1.099c0-.496.406-.898.908-.898h18.466c.501 0 .908.402.908.898v1.1a.903.903 0 0 1-.908.898"/>
        <path fill="#637AAB" d="M26.403 34.709h13.848c.152 0 .411-.4.15-.4H26.551c-.151 0-.41.4-.149.4"/>
    </g>
</svg>
