<svg xmlns="http://www.w3.org/2000/svg" xmlns:xlink="http://www.w3.org/1999/xlink" width="80" height="72" viewBox="0 0 80 72">
    <defs>
        <path id="a" d="M0 0h80v72H0z"/>
    </defs>
    <g fill="none" fill-rule="evenodd">
        <g>
            <mask id="b" fill="#fff">
                <use xlink:href="#a"/>
            </mask>
            <path fill="#F9F9F9" d="M20.633 70.759C18.938 70.392-1.42 67.092.079 42.752c1.498-24.34 3.38-31.66 11.294-34.338 7.915-2.678 27.155-15.35 42.253-3.301 3.919 3.128 7.913 6.154 11.727 9.428 5.242 4.498 10.633 9.694 13.209 16.5a22.32 22.32 0 0 1 1.33 10.083c-.394 4.017-.95 7.924-1.96 11.838-.345 1.332-.69 2.665-1.033 3.997-.207.8-.415 1.604-.74 2.358-2.094 4.856-4.735 8.042-9.16 10.628-3.84 2.243-8.598 2.185-12.84 1.938-16.868-.982-25.47.618-33.526-1.124" mask="url(#b)"/>
        </g>
        <path fill="#EFEFEF" d="M28.506 54.768c0 5.521-4.469 9.997-9.982 9.997-5.513 0-9.982-4.476-9.982-9.997 0-5.522 4.469-9.998 9.982-9.998 5.513 0 9.982 4.476 9.982 9.998"/>
        <path fill="#E4E4E4" d="M20.432 54.973a3.674 3.674 0 0 0 1.71-3.095 3.674 3.674 0 0 0-3.66-3.688 3.674 3.674 0 0 0-3.682 3.665 3.674 3.674 0 0 0 1.69 3.106 8.304 8.304 0 0 0-5.972 5.62 9.808 9.808 0 0 0 7.913 4.05 9.807 9.807 0 0 0 7.938-4 8.305 8.305 0 0 0-5.937-5.658"/>
        <path fill="#FFF" d="M20.55 54.957c.962-.61 1.607-2.047 1.607-2.559 0-1.91-1.3-3.463-3.207-3.469-1.907-.006-3.458 1.42-3.464 3.33a3.456 3.456 0 0 0 1.59 2.922c-2.675.645-5.049 3.496-5.853 6.111 1.675 2.3 4.618 3.33 7.678 3.34a9.226 9.226 0 0 0 7.468-3.763c-.788-2.62-3.149-5.25-5.82-5.912"/>
        <path fill="#637AAB" d="M20.58 54.98c1.134-.744 1.827-2.008 1.749-3.378a3.73 3.73 0 0 0-1.951-3.048c-2.175-1.158-5.111.08-5.673 2.514-.354 1.531.308 3.096 1.604 3.959l.165-.128c-2.224.554-4.181 1.95-5.356 3.932-.286.482-.667 1.112-.755 1.673-.029.183-.024.152.103.318a10.441 10.441 0 0 0 .863.988 9.855 9.855 0 0 0 3.055 2.083c2.24.97 4.797 1.068 7.117.325a10.187 10.187 0 0 0 3.067-1.596 9.991 9.991 0 0 0 1.885-1.883c.12-.156.117-.138.057-.325a8.223 8.223 0 0 0-.176-.49c-.986-2.496-3.155-4.365-5.744-5.026-.09-.024-.427.122-.316.15a8.333 8.333 0 0 1 5.094 3.797c.264.444.486.913.662 1.398.05.138.121.277.095.423-.031.172-.184.31-.294.443a9.646 9.646 0 0 1-3.37 2.595c-2.19 1.012-4.734 1.104-7.012.328a9.747 9.747 0 0 1-2.97-1.646 9.91 9.91 0 0 1-1.15-1.093c-.179-.2-.52-.502-.567-.762-.044-.244.149-.572.245-.797.994-2.329 3.043-4.101 5.5-4.712.012-.003.234-.081.165-.128-2.088-1.389-2.257-4.553-.16-6.032 2.102-1.482 4.994.035 5.389 2.46a3.667 3.667 0 0 1-1.617 3.644c-.16.105.224.06.296.014"/>
        <path fill="#637AAB" d="M28.313 54.82c-.022 4.085-2.577 7.895-6.437 9.308-3.924 1.436-8.453.023-11.013-3.24-2.498-3.185-2.814-7.706-.769-11.202 2.138-3.655 6.429-5.551 10.56-4.58 3.911.918 6.955 4.246 7.549 8.221.074.495.108.993.11 1.493 0 .05.387-.002.386-.104-.024-4.3-2.83-8.203-6.929-9.53-3.903-1.263-8.361.003-11.025 3.123-2.818 3.3-3.17 8.204-.842 11.87 2.278 3.588 6.64 5.326 10.767 4.411 4.01-.889 7.215-4.138 7.893-8.22.091-.547.133-1.1.136-1.654 0-.05-.385 0-.386.104"/>
        <path fill="#D6F3F9" d="M49.982 22.845c0 5.522-4.469 9.998-9.982 9.998-5.513 0-9.982-4.476-9.982-9.998 0-5.521 4.469-9.997 9.982-9.997 5.513 0 9.982 4.476 9.982 9.997"/>
        <path fill="#EFEFEF" d="M41.908 23.05a3.674 3.674 0 0 0 1.71-3.095 3.674 3.674 0 0 0-3.66-3.688 3.673 3.673 0 0 0-3.682 3.665 3.674 3.674 0 0 0 1.69 3.106 8.305 8.305 0 0 0-5.972 5.621 9.807 9.807 0 0 0 7.913 4.05 9.807 9.807 0 0 0 7.938-4 8.305 8.305 0 0 0-5.937-5.658"/>
        <path fill="#FFF" d="M42.025 23.035c.963-.611 1.608-2.047 1.608-2.559 0-1.91-1.3-3.463-3.207-3.47-1.907-.005-3.458 1.42-3.464 3.33a3.456 3.456 0 0 0 1.59 2.923c-2.675.645-5.049 3.495-5.853 6.11 1.675 2.301 4.618 3.33 7.678 3.34a9.226 9.226 0 0 0 7.468-3.763c-.788-2.62-3.149-5.249-5.82-5.911"/>
        <path fill="#637AAB" d="M42.056 23.057c1.134-.744 1.826-2.008 1.749-3.377a3.73 3.73 0 0 0-1.951-3.048c-2.175-1.159-5.111.079-5.673 2.514-.354 1.53.308 3.096 1.604 3.958l.165-.127c-2.224.553-4.181 1.95-5.356 3.932-.286.482-.667 1.111-.755 1.673-.029.182-.024.152.103.318a9.962 9.962 0 0 0 .863.988 9.856 9.856 0 0 0 3.055 2.082c2.24.97 4.797 1.068 7.117.325a10.185 10.185 0 0 0 3.067-1.596 9.996 9.996 0 0 0 1.885-1.882c.12-.156.117-.139.057-.326a8.259 8.259 0 0 0-.176-.49c-.986-2.495-3.155-4.365-5.744-5.026-.09-.023-.427.123-.316.151a8.333 8.333 0 0 1 5.094 3.797c.264.444.486.912.662 1.398.05.138.121.277.095.423-.031.171-.184.31-.294.442a9.648 9.648 0 0 1-3.37 2.595c-2.19 1.013-4.734 1.105-7.012.328a9.745 9.745 0 0 1-2.97-1.645 9.902 9.902 0 0 1-1.15-1.093c-.179-.2-.52-.502-.567-.762-.044-.244.149-.573.245-.798.994-2.328 3.043-4.1 5.5-4.712.012-.003.234-.08.165-.127-2.088-1.39-2.257-4.553-.16-6.032 2.102-1.483 4.994.035 5.389 2.46a3.667 3.667 0 0 1-1.617 3.644c-.16.105.224.06.296.013"/>
        <path fill="#637AAB" d="M49.79 22.897c-.023 4.086-2.578 7.895-6.438 9.308-3.925 1.437-8.453.023-11.013-3.24-2.498-3.184-2.814-7.705-.769-11.202 2.138-3.655 6.43-5.55 10.56-4.58 3.911.919 6.955 4.246 7.549 8.222.074.494.108.992.11 1.492 0 .05.387-.001.386-.103-.024-4.301-2.83-8.204-6.929-9.53-3.903-1.264-8.361.003-11.025 3.123-2.818 3.3-3.17 8.204-.842 11.87 2.278 3.587 6.64 5.325 10.767 4.41 4.01-.888 7.215-4.137 7.893-8.22.091-.546.133-1.099.136-1.653 0-.05-.385 0-.386.103"/>
        <path fill="#EFEFEF" d="M71.458 50.769c0 5.521-4.469 9.997-9.982 9.997-5.513 0-9.982-4.476-9.982-9.997 0-5.522 4.469-9.998 9.982-9.998 5.513 0 9.982 4.476 9.982 9.998"/>
        <path fill="#E4E4E4" d="M63.384 50.974a3.674 3.674 0 0 0 1.71-3.095 3.674 3.674 0 0 0-3.66-3.688 3.673 3.673 0 0 0-3.682 3.665 3.674 3.674 0 0 0 1.69 3.106 8.305 8.305 0 0 0-5.972 5.62 9.808 9.808 0 0 0 7.913 4.05 9.807 9.807 0 0 0 7.938-4 8.305 8.305 0 0 0-5.937-5.658"/>
        <path fill="#FFF" d="M63.501 50.958c.963-.61 1.608-2.047 1.608-2.559 0-1.91-1.3-3.463-3.207-3.469-1.907-.006-3.458 1.42-3.464 3.33a3.456 3.456 0 0 0 1.59 2.922c-2.675.645-5.049 3.496-5.853 6.111 1.675 2.3 4.618 3.33 7.678 3.339a9.226 9.226 0 0 0 7.468-3.762c-.788-2.62-3.149-5.25-5.82-5.912"/>
        <path fill="#637AAB" d="M63.532 50.98c1.134-.744 1.826-2.007 1.749-3.377a3.73 3.73 0 0 0-1.951-3.048c-2.175-1.159-5.111.08-5.673 2.514-.354 1.531.308 3.096 1.604 3.959l.165-.128c-2.224.554-4.181 1.95-5.356 3.932-.286.482-.667 1.112-.755 1.673-.029.182-.024.152.103.318a10.038 10.038 0 0 0 .863.988 9.854 9.854 0 0 0 3.055 2.083c2.24.97 4.797 1.068 7.117.325a10.187 10.187 0 0 0 3.067-1.596 9.99 9.99 0 0 0 1.885-1.883c.12-.156.117-.139.057-.325a8.28 8.28 0 0 0-.176-.49c-.986-2.496-3.155-4.365-5.744-5.027-.09-.023-.427.123-.316.152a8.333 8.333 0 0 1 5.094 3.796c.264.444.486.913.662 1.398.05.138.121.277.095.423-.031.172-.184.31-.294.443a9.648 9.648 0 0 1-3.37 2.595c-2.19 1.012-4.734 1.104-7.012.328a9.748 9.748 0 0 1-2.97-1.646 9.922 9.922 0 0 1-1.15-1.093c-.179-.2-.52-.502-.567-.762-.044-.244.149-.572.245-.797.994-2.33 3.043-4.101 5.5-4.712.012-.003.234-.082.165-.128-2.088-1.389-2.257-4.553-.16-6.032 2.102-1.483 4.994.035 5.388 2.46a3.666 3.666 0 0 1-1.616 3.644c-.16.105.224.06.296.014"/>
        <path fill="#637AAB" d="M71.265 50.82c-.022 4.086-2.577 7.895-6.437 9.309-3.925 1.436-8.453.023-11.013-3.24-2.498-3.185-2.814-7.706-.769-11.202 2.138-3.655 6.429-5.551 10.56-4.58 3.911.918 6.955 4.245 7.549 8.221.074.495.108.993.11 1.492 0 .051.387 0 .386-.103-.024-4.3-2.83-8.203-6.929-9.53-3.903-1.263-8.361.003-11.025 3.123-2.818 3.3-3.17 8.204-.842 11.87 2.278 3.588 6.64 5.326 10.767 4.41 4.01-.888 7.215-4.137 7.893-8.219.091-.547.133-1.1.136-1.654 0-.05-.385 0-.386.103M60.09 39.187a20.19 20.19 0 0 0-5.692-11.585 20.39 20.39 0 0 0-2.843-2.369c-.155-.107-.673.125-.54.217 3.577 2.475 6.305 6.072 7.665 10.214.393 1.197.667 2.429.831 3.678.022.166.605.04.579-.155M28.98 58.804c5.293 3.387 11.978 4.1 17.885 1.974a20.455 20.455 0 0 0 4.57-2.34c.323-.22-.175-.29-.357-.167-5.018 3.413-11.447 4.328-17.209 2.387a20.152 20.152 0 0 1-4.428-2.132c-.156-.1-.691.13-.462.278M27.988 25.662c-3.805 2.808-6.576 6.907-7.685 11.516a20.522 20.522 0 0 0-.547 4.121c-.005.144.571.052.578-.155a20.03 20.03 0 0 1 5.189-12.791 20.105 20.105 0 0 1 2.922-2.624c.11-.08.045-.141-.048-.177-.117-.045-.316.041-.409.11"/>
    </g>
</svg>
