<svg xmlns="http://www.w3.org/2000/svg" xmlns:xlink="http://www.w3.org/1999/xlink" width="81" height="72" viewBox="0 0 81 72">
    <defs>
        <path id="a" d="M0 .063h80.965V71.92H0z"/>
    </defs>
    <g fill="none" fill-rule="evenodd">
        <g transform="translate(0 .017)">
            <mask id="b" fill="#fff">
                <use xlink:href="#a"/>
            </mask>
            <path fill="#F9F9F9" d="M20.88 70.702c-1.714-.366-22.317-3.66-20.8-27.96C1.596 18.445 3.5 11.137 11.51 8.463 19.52 5.79 38.99-6.86 54.27 5.169 69.547 17.196 86.034 27.985 79.491 47.19 72.95 66.398 71.88 72.804 54.81 71.824c-17.07-.98-25.775.617-33.929-1.122" mask="url(#b)"/>
        </g>
        <path fill="#FFF" d="M62.219 15.469c-.412-.218-.876-.255-1.326-.153-.272.062-.534.158-.8.24-.506.156-.55.288-.756-.152-.225-.48.05-.973-.39-1.474a1.694 1.694 0 0 0-1.766-.494c-.334-.784-.72-1.534-1.355-2.144-1.265-1.214-3.194-1.72-4.842-1.04-.74.305-1.388.809-1.909 1.412-.272.316-.511.66-.715 1.024-.184.33-.266.76-.488 1.058-.487-.183-.937-.425-1.445-.565-.995-.274-2.076-.327-2.947.32-.715.53-1.168 1.49-.937 2.376.13.503.37.875.88.882.722.01 1.445 0 2.167 0h17.891s-.518-.896-1.262-1.29M71.652 23.166c.236-1.235-.212-2.594-1.128-3.473-1.145-1.098-2.89-1.556-4.382-.94-.67.276-1.255.731-1.727 1.277a5.622 5.622 0 0 0-.647.926c-.167.299-.24.688-.442.958-.44-.166-.847-.384-1.307-.51-.9-.249-1.88-.297-2.667.288-.657.487-1.067 1.373-.84 2.184.082.287.293.757.617.785.093.008.191 0 .285 0h11.343c.191-.002.216-.036.33-.19.292-.397.476-.842.565-1.305M4.397 21.774c-.236-1.234.211-2.594 1.128-3.473 1.144-1.098 2.89-1.556 4.381-.94.67.276 1.256.731 1.727 1.277.247.286.463.598.647.927.167.298.241.687.442.957.441-.165.848-.384 1.307-.51.9-.248 1.88-.297 2.668.288.656.488 1.067 1.373.839 2.184-.081.288-.293.758-.616.785-.094.008-.192 0-.286 0H5.292c-.192-.001-.216-.036-.33-.19a3.197 3.197 0 0 1-.565-1.305"/>
        <g>
            <path fill="#E6E6E6" d="M62.024 61.72c.374.277.712.61.688 1.14-.097 2.065-6.802 2.71-8.169 2.943-6.892 1.168-14.292 2.133-21.298 1.642-4.226-.296-8.251-2.267-11.463-4.959-.818-.685-3.382-2.512-3.239-3.783.16-1.427 2.507-1.66 3.594-1.886 4.03-.841 8.187-.99 12.287-1.115 4.171-.127 8.355-.05 12.51.39 5.208.548 10.777 2.308 15.03 5.585l.06.043z"/>
            <path fill="#E6E6E6" d="M21.44 39.32l25.84-3.995V55.75l-25.84 3.995z"/>
            <path fill="#FFF" d="M21.44 39.32l25.84-3.995-4.239-4.891-25.292 3.995a.25.25 0 0 0-.19.414l3.88 4.478z"/>
            <path fill="#637AAB" d="M21.424 39.468l8.763-1.355a416122.701 416122.701 0 0 0 17.077-2.64c.085-.013.296-.115.192-.234l-2.686-3.1-1.387-1.601c-.136-.157-.207-.256-.42-.237-.73.065-1.468.232-2.192.346l-4.272.675-10.954 1.73-7.418 1.172c-.158.025-.348.031-.501.08-.704.229-.064.832.18 1.114l3.188 3.68.269.31c.12.138.486-.02.353-.174l-2.044-2.359-1.343-1.55c-.074-.085-.643-.587-.492-.75.04-.043.273-.042.328-.051l.807-.127 2.754-.436 8.319-1.314 8.52-1.346 3.024-.477.964-.153c.148-.023.367-.017.505-.08.018-.008.047-.007.068-.01l-.161-.06 4.238 4.891.192-.234-8.763 1.355-13.877 2.146-3.2.494c-.216.034-.292.336-.031.295"/>
            <path fill="#F7F7F7" d="M47.235 35.325l11.333 6.845v20.424l-11.333-6.74z"/>
            <path fill="#637AAB" d="M47.542 55.802V36.245c0-.105-.5-.037-.5.103v19.558c0 .105.5.037.5-.104"/>
            <path fill="#F2F2F2" d="M47.235 35.325l11.333 6.845 3.622-3.52a.659.659 0 0 0-.122-1.04l-10.164-6.044a.661.661 0 0 0-.793.088l-3.876 3.671z"/>
            <path fill="#FFF" d="M47.235 35.325l11.333 6.845 2.581-2.531a1.085 1.085 0 0 0-.205-1.708l-7.255-4.314a4.4 4.4 0 0 0-5.282.593l-1.172 1.115z"/>
            <path fill="#637AAB" d="M47.3 35.457l9.92 5.99 1.414.854c.01.007.052.034.068.018 1.188-1.155 2.404-2.286 3.566-3.466.53-.54.119-1.145-.416-1.464l-1.676-.996-5.672-3.373-2.127-1.265c-.437-.26-.911-.65-1.404-.245-.69.567-1.314 1.244-1.962 1.858l-1.91 1.809c-.059.056.211.35.268.297l2.802-2.654c.354-.335.694-.702 1.07-1.013.415-.345.75-.097 1.113.12l7.76 4.614 1.496.89c.28.166.676.285.635.681-.046.452-.725.91-1.02 1.196l-1.808 1.759-.709.688c-.048.048-.35.281-.206.283-.154-.002-.466-.281-.591-.357l-3.456-2.087-7.142-4.314-.143-.086c-.157-.095.063.222.13.263"/>
            <path fill="#637AAB" d="M47.054 35.393l9.918 5.99 1.415.855c.098.06.426-.098.363-.136l-9.919-5.99-1.414-.854c-.098-.06-.426.097-.363.135"/>
            <path fill="#F2F2F2" d="M32.772 46.166l25.933-3.996v20.424l-25.933 3.995z"/>
            <path fill="#FFF" d="M32.772 46.589c.96 1.429 2.503 4.256 3.235 5.458.456.749 1.757.709 2.8.505 3.587-.7 7.14-1.267 10.73-1.845l6.87-1.105c.128-.02 2.298-.312 2.298-.37v13.362l-25.933 3.995v-20z"/>
            <path fill="#E6E6E6" d="M32.79 66.547l-11.526-6.873V39.298L32.79 46.17z"/>
            <path fill="#F2F2F2" d="M21.44 46.89l6.436 4.173a1.996 1.996 0 0 0 2.337-.652l2.56-3.399V66.59l-11.334-6.74V46.892z"/>
            <path fill="#637AAB" d="M32.58 47.09V65.879c0 .082.5.021.5-.104V46.987c0-.083-.5-.022-.5.103"/>
            <path fill="#637AAB" d="M21.244 45.683V59.659c0 .11-.02.218.049.304.074.092.271.161.371.22l5.43 3.23 5.255 3.125c.21.125.328.205.571.168l1.34-.206 13.353-2.058 10.896-1.679.18-.027c.075-.012.212-.057.212-.157V47.656c0-.202-.392-.145-.392.03v14.922l.213-.157-9.143 1.41c-4.688.721-9.375 1.444-14.062 2.166l-1.979.305c-.179.027-.596.01-.748.115.094-.065.18.085.06-.012-.066-.053-.154-.092-.227-.135l-.854-.508-2.758-1.64-6.137-3.65c-.421-.25-.84-.546-1.28-.761.134.065.004.133.041.036.02-.053 0-.16 0-.215V45.654c0-.203-.391-.146-.391.029"/>
            <path fill="#F2F2F2" d="M32.772 46.166l25.933-3.996 3.947 4.556a.203.203 0 0 1-.154.337l-25.394 4.395a.204.204 0 0 1-.154-.07l-4.178-5.222z"/>
            <path fill="#FFF" d="M32.772 46.166l25.933-3.996 1.707 1.981c.768.893.27 2.281-.892 2.482l-21.906 3.8a2.158 2.158 0 0 1-2.054-.778l-2.788-3.49z"/>
            <path fill="#637AAB" d="M32.75 46.29l8.766-1.35 13.967-2.153 3.2-.493-.156-.044 2.686 3.1c.396.458.853.9 1.205 1.392.154.215.083.2-.126.236l-6.827 1.182a254953.407 254953.407 0 0 1-17.991 3.114c-.123.02-.28.067-.353.025-.108-.064-.212-.266-.289-.362l-.615-.768-3.047-3.81-.22-.274c-.095-.12-.466.023-.356.16l1.965 2.457 1.425 1.781c.25.313.484.677.769.96.26.26.757.065 1.072.01l2.596-.449 8.493-1.47 8.926-1.545c1.533-.265 3.067-.52 4.598-.795.312-.057.587-.257.366-.579-.256-.372-.61-.704-.906-1.045l-2.764-3.19c-.131-.152-.219-.33-.43-.33-.142-.001-.3.046-.44.067l-2.29.353-8.204 1.264-9.18 1.415-5.527.851-.269.042c-.198.03-.308.289-.043.248"/>
            <path fill="#F2F2F2" d="M21.44 39.32l11.332 6.846-3.347 3.736a1.272 1.272 0 0 1-1.565.264c-4.8-2.665-10.19-6.475-10.19-6.475a.32.32 0 0 1-.113-.527l3.882-3.843z"/>
            <path fill="#FFF" d="M21.44 39.32l11.332 6.846-2.856 3.034a1.438 1.438 0 0 1-1.728.279c-3.442-1.848-7.212-4.434-9.09-5.765a1.25 1.25 0 0 1-.159-1.907l2.5-2.486z"/>
            <path fill="#637AAB" d="M21.291 39.436l9.919 5.99 1.414.855-.015-.177-2.649 2.814c-.315.335-.616.71-.959 1.019-.384.345-.758.148-1.142-.065-.33-.183-.66-.37-.987-.557-.642-.369-1.279-.746-1.913-1.128a148.723 148.723 0 0 1-6.072-3.884c-.338-.227-.775-.44-1.068-.726-.116-.114-.186-.2-.078-.373.034-.054.104-.102.149-.147l.603-.597 3.11-3.077c.172-.171-.198-.252-.327-.124l-2.942 2.912-.718.71c-.1.099-.238.204-.303.333-.23.463.499.792.804.999a150.583 150.583 0 0 0 6.09 3.927 107.111 107.111 0 0 0 3.009 1.768c.296.167.607.393.937.487.698.198 1.134-.29 1.556-.74l3.227-3.427c.045-.048.045-.14-.016-.177l-9.918-5.99-1.415-.855c-.153-.093-.486.115-.296.23M30.692 51.537v3.47c0 .208.5.156.5-.026v-3.47c0-.209-.5-.157-.5.026M30.695 55.75v.548c0 .161.5.08.5-.048v-.547c0-.162-.5-.081-.5.047M30.693 56.928v1.425c0 .196.5.134.5-.032v-1.426c0-.196-.5-.134-.5.033"/>
            <path fill="#D2D2D2" d="M27.354 58.787l-3.173-1.822c-.144-.082-.484.113-.299.22l3.173 1.822c.144.082.484-.113.3-.22M27.358 57.57l-3.159-1.832c-.114-.067-.469.098-.306.192l3.159 1.832c.114.066.469-.098.306-.193M27.36 56.369l-3.145-1.841c-.102-.06-.46.092-.309.18l3.144 1.84c.102.06.46-.091.31-.18M27.352 59.986l-.7-.405a.247.247 0 0 0-.278.02c-.06.048-.105.163-.018.213l.701.405c.087.05.199.045.278-.02.06-.048.105-.162.017-.213M26.13 59.303l-.707-.41c-.1-.057-.458.093-.31.178l.707.409c.099.057.457-.092.31-.177M24.886 58.575l-.713-.412c-.119-.069-.472.1-.306.196l.714.412c.118.069.471-.1.305-.196M47.475 23.25c.212 0 .544-.5.195-.5-.213 0-.545.5-.195.5M46.923 12.186c.11 0 .612-.5.355-.5-.11 0-.612.5-.355.5"/>
            <path fill="#E4E4E4" d="M57.634 22.748c0 5.854-4.753 10.6-10.616 10.6-5.863 0-10.616-4.746-10.616-10.6 0-5.854 4.753-10.599 10.616-10.599 5.863 0 10.616 4.745 10.616 10.6"/>
            <path fill="#637AAB" d="M57.454 22.76c-.02 4.332-2.74 8.326-6.837 9.823-4.127 1.508-8.872.186-11.651-3.2-2.766-3.37-3.145-8.235-.928-11.989 2.234-3.78 6.729-5.772 11.035-4.9 4.218.852 7.555 4.349 8.245 8.582.09.558.133 1.12.136 1.684.001.191.361.143.36-.024-.02-4.48-2.87-8.572-7.108-10.09-4.238-1.519-9.108-.19-11.991 3.258-2.895 3.462-3.292 8.517-.96 12.384 2.33 3.861 6.946 5.856 11.364 4.986 4.357-.858 7.841-4.44 8.557-8.819.093-.568.136-1.143.139-1.719 0-.191-.36-.143-.36.024"/>
            <path fill="#FFF" d="M57.58 22.748s-5.894 6.332-10.562 6.332c-4.668 0-10.562-6.332-10.562-6.332s5.894-6.332 10.562-6.332c4.668 0 10.562 6.332 10.562 6.332"/>
            <path fill="#637AAB" d="M57.418 22.756c-.68.73-1.422 1.409-2.177 2.06-1.523 1.316-3.18 2.545-5.016 3.389-.908.417-1.888.745-2.894.79-.98.043-1.955-.21-2.86-.567-1.892-.745-3.595-1.955-5.152-3.243-.932-.772-1.786-1.61-2.651-2.452-.068-.066-.068.03-.005-.04.101-.111.209-.217.314-.323.443-.445.901-.877 1.37-1.296 1.48-1.324 3.082-2.562 4.85-3.481.888-.462 1.834-.853 2.827-1.018.975-.162 1.944-.037 2.881.258 1.946.614 3.7 1.798 5.287 3.054a31.348 31.348 0 0 1 3.221 2.924c.068.072.4-.054.333-.126-.742-.796-1.556-1.535-2.385-2.239-1.59-1.35-3.326-2.61-5.258-3.424-.89-.375-1.842-.652-2.813-.683-.935-.03-1.863.18-2.739.496-1.965.708-3.735 1.933-5.343 3.243-1.02.83-2.016 1.715-2.914 2.678-.016.018-.021.037-.004.055.742.797 1.556 1.535 2.386 2.24 1.589 1.349 3.325 2.61 5.257 3.423.89.375 1.843.653 2.813.683.936.03 1.864-.18 2.74-.496 1.964-.708 3.734-1.933 5.342-3.242 1.02-.831 2.016-1.716 2.914-2.68.082-.087-.26-.052-.324.017"/>
            <path fill="#ABE0F6" d="M52.71 22.748a5.687 5.687 0 0 1-5.692 5.683 5.687 5.687 0 0 1-5.692-5.683 5.687 5.687 0 0 1 5.692-5.683 5.687 5.687 0 0 1 5.692 5.683"/>
            <path fill="#637AAB" d="M49.49 22.748a2.47 2.47 0 0 1-2.472 2.469 2.47 2.47 0 0 1-2.472-2.469 2.47 2.47 0 0 1 2.472-2.469 2.47 2.47 0 0 1 2.473 2.47"/>
            <path fill="#637AAB" d="M49.314 22.796c-.02.974-.603 1.921-1.554 2.242-.963.325-2.059-.136-2.615-.957a2.465 2.465 0 0 1-.125-2.54c.514-.945 1.601-1.415 2.634-1.065 1 .338 1.638 1.28 1.66 2.32 0 .064.357.01.354-.095-.023-1.138-.79-2.147-1.91-2.42-.987-.242-2.114.099-2.778.872a2.514 2.514 0 0 0-.162 3.062c.618.882 1.727 1.243 2.762 1 1.195-.282 2.063-1.276 2.088-2.514.002-.06-.352-.012-.354.095"/>
            <path fill="#ABE0F6" d="M32.42 33.287c0 3.819-3.1 6.914-6.925 6.914-3.824 0-6.925-3.095-6.925-6.914 0-3.818 3.1-6.914 6.925-6.914 3.825 0 6.926 3.096 6.926 6.914"/>
            <path fill="#637AAB" d="M32.601 33.487c-.013 2.826-1.787 5.432-4.46 6.408-2.692.984-5.787.121-7.6-2.087-1.805-2.198-2.052-5.372-.605-7.821 1.457-2.466 4.389-3.765 7.198-3.197 2.751.556 4.928 2.837 5.378 5.599.06.364.087.73.09 1.098 0 .125.235.094.234-.015-.014-2.923-1.872-5.592-4.637-6.583-2.764-.99-5.941-.124-7.822 2.126-1.889 2.259-2.147 5.556-.626 8.078 1.52 2.52 4.53 3.82 7.413 3.253 2.842-.56 5.115-2.897 5.582-5.753.06-.37.089-.745.09-1.121 0-.125-.234-.094-.235.015"/>
            <path fill="#FFF" d="M29.713 30.833c0 .906-.453 1.513-.665 2-.138.314-.257.587-.29.88a17.88 17.88 0 0 0-.064.794c-.056.79-.073 1.54-.334 2.506-.184.685-.633 1.225-.932 1.148-.79-.203-1.23-3.246-1.628-3.246-.399 0-.839 3.043-1.629 3.246-.298.077-.747-.463-.931-1.148-.261-.967-.278-1.716-.334-2.506-.02-.31-.04-.579-.065-.794-.032-.293-.15-.566-.289-.88-.212-.487-.665-1.094-.665-2 0-1.666 1.647-2.04 2.16-2.04.221 0 .458.053.706.109.305.068.65.146 1.047.146.397 0 .742-.078 1.047-.146.248-.056.485-.11.706-.11.513 0 2.16.375 2.16 2.04"/>
            <path fill="#637AAB" d="M25.8 34.863c.214 0 .362.436.626 1.273.27.855.607 1.92 1.021 2.027.232.06.658-.423.841-1.113.224-.84.268-1.533.31-2.203a43.692 43.692 0 0 1 .087-1.139c.033-.31.154-.59.295-.915.049-.115.11-.235.175-.363.216-.422.484-.946.484-1.64 0-1.658-1.645-1.997-2.086-1.997-.21 0-.438.052-.679.106l-.025.006c-.305.069-.65.147-1.049.147-.399 0-.744-.078-1.049-.147l-.025-.006c-.241-.054-.47-.106-.68-.106-.44 0-2.085.339-2.085 1.997 0 .694.268 1.219.484 1.64.065.128.126.248.175.363.14.324.262.605.295.916a47.161 47.161 0 0 1 .087 1.138c.042.67.086 1.363.31 2.203.182.69.61 1.174.84 1.113.415-.108.751-1.172 1.022-2.027.264-.837.412-1.273.626-1.273m1.685 3.38a.3.3 0 0 1-.075-.01c-.493-.127-.829-1.172-1.125-2.094-.147-.458-.37-1.15-.485-1.15-.116 0-.338.692-.485 1.15-.296.922-.632 1.967-1.125 2.094-.348.089-.826-.472-1.022-1.201-.227-.841-.271-1.53-.315-2.197a42.309 42.309 0 0 0-.086-1.114c-.03-.283-.147-.55-.283-.858-.047-.108-.107-.225-.171-.348-.223-.43-.5-.964-.5-1.682 0-1.756 1.762-2.114 2.234-2.114.226 0 .462.052.711.108l.025.006c.298.066.634.14 1.017.14.382 0 .72-.074 1.016-.14l.026-.006c.249-.056.484-.108.711-.108.472 0 2.234.358 2.234 2.114 0 .718-.277 1.253-.5 1.682-.064.123-.124.24-.171.348-.136.308-.253.575-.283.858-.022.19-.042.434-.065.791l-.022.323c-.043.667-.087 1.356-.314 2.197-.183.678-.608 1.21-.947 1.21M43.405 36.095h-4.94v-1.623c0-.11.122-.232.295-.232h4.352c.173 0 .293.123.293.232v1.623zm-.293-2.086H38.76c-.372 0-.674.255-.674.568v1.518c0 .105.085.19.19.19h5.32a.19.19 0 0 0 .19-.19v-1.518c0-.313-.303-.568-.674-.568z"/>
            <path fill="#637AAB" d="M42.638 43.492v.38h-4.755a.563.563 0 0 1-.556-.57v-4.931c0-.875.64-1.598 1.462-1.696v-.58h.38v.759a.19.19 0 0 1-.19.19c-.702 0-1.463.595-1.463 1.327v4.931c0 .105.269.19.367.19h4.755z"/>
            <path fill="#ABE0F6" d="M43.92 38.242v4.932c0 .105-.247.19-.336.19h-5.598c-.09 0-.335-.085-.335-.19v-4.932c0-.731.697-1.327 1.34-1.327.097 0 .175-.085.175-.19v-.57h3.238v.57c0 .105.078.19.174.19.644 0 1.342.596 1.342 1.327"/>
            <path fill="#637AAB" d="M44.546 38.37v4.932c0 .314-.25.57-.556.57h-4.756v-.38h4.756c.097 0 .366-.085.366-.19v-4.931c0-.732-.761-1.328-1.463-1.328a.19.19 0 0 1-.19-.19v-.758h.38v.58c.821.098 1.463.821 1.463 1.696"/>
            <path fill="#FFF" d="M39.796 39.51h.76c.21 0 .673-.205.57-.57-.091-.325-.36-.38-.57-.38h-.76v.95zm-.19 1.327a.19.19 0 0 1-.19-.19v-2.276a.19.19 0 0 1 .19-.19h.95a.76.76 0 0 1 0 1.517h-.76v.95a.19.19 0 0 1-.19.189z"/>
            <path fill="#FFF" d="M42.157 41.876a.164.164 0 0 1-.122-.055l-1.718-1.897a.204.204 0 0 1 0-.268.16.16 0 0 1 .243 0l1.718 1.897a.204.204 0 0 1 0 .268.164.164 0 0 1-.121.055"/>
            <path fill="#FFF" d="M40.366 41.876a.19.19 0 0 1-.134-.323l1.9-1.897a.19.19 0 0 1 .268.268l-1.9 1.897a.19.19 0 0 1-.134.055"/>
        </g>
    </g>
</svg>
