<svg xmlns="http://www.w3.org/2000/svg" xmlns:xlink="http://www.w3.org/1999/xlink" width="109" height="72" viewBox="0 0 109 72">
    <defs>
        <path id="a" d="M0 .021h105.297V72H0z"/>
        <path id="c" d="M0 .066h19.82v4.72H0z"/>
        <path id="e" d="M.024.026h19.82v4.72H.024z"/>
    </defs>
    <g fill="none" fill-rule="evenodd">
        <g>
            <mask id="b" fill="#fff">
                <use xlink:href="#a"/>
            </mask>
            <path fill="#EDF9FC" d="M27.155 70.78c-2.23-.367-29.024-3.667-27.051-28.007 1.972-24.34 4.448-31.66 14.865-34.338 10.417-2.678 35.739-15.35 55.61-3.301 19.87 12.05 41.311 22.856 32.803 42.095-8.509 19.239-9.902 25.657-32.102 24.675-22.2-.982-33.52.618-44.125-1.124" mask="url(#b)"/>
        </g>
        <path fill="#FFF" d="M8.272 17.027h37.6a2.479 2.479 0 0 1 2.478 2.464v.988a2.479 2.479 0 0 1-2.479 2.465h-37.6a2.479 2.479 0 0 1-2.477-2.465v-.988a2.479 2.479 0 0 1 2.478-2.464M5.194 24.987h15.074a2.373 2.373 0 0 1 2.373 2.36 2.373 2.373 0 0 1-2.373 2.359H5.194a2.373 2.373 0 0 1-2.373-2.36 2.373 2.373 0 0 1 2.373-2.36"/>
        <g transform="translate(0 10.41)">
            <mask id="d" fill="#fff">
                <use xlink:href="#c"/>
            </mask>
            <path fill="#FFF" d="M2.373.066h15.075a2.373 2.373 0 0 1 2.373 2.36 2.373 2.373 0 0 1-2.373 2.36H2.373A2.373 2.373 0 0 1 0 2.426 2.373 2.373 0 0 1 2.373.066" mask="url(#d)"/>
        </g>
        <path fill="#FFF" d="M10.291 15.007c.735 0 1.331.453 1.331 1.01 0 .558-.596 1.01-1.33 1.01h5.806c-.735 0-1.331-.452-1.331-1.01 0-.557.596-1.01 1.33-1.01h-5.806zM8.41 22.879c.768 0 1.39.472 1.39 1.054 0 .582-.622 1.054-1.39 1.054h6.061c-.767 0-1.389-.472-1.389-1.054 0-.582.622-1.054 1.39-1.054H8.41zM100.2 46.165H62.6a2.478 2.478 0 0 1-2.477-2.464v-.988a2.478 2.478 0 0 1 2.478-2.465h37.6a2.478 2.478 0 0 1 2.477 2.465v.988a2.478 2.478 0 0 1-2.478 2.464M103.279 38.205H88.204a2.373 2.373 0 0 1-2.373-2.36 2.373 2.373 0 0 1 2.373-2.359h15.075a2.373 2.373 0 0 1 2.372 2.36 2.373 2.373 0 0 1-2.372 2.36"/>
        <g transform="translate(88.628 47.971)">
            <mask id="f" fill="#fff">
                <use xlink:href="#e"/>
            </mask>
            <path fill="#FFF" d="M17.471 4.745H2.397a2.373 2.373 0 0 1-2.373-2.36A2.373 2.373 0 0 1 2.397.025H17.47a2.373 2.373 0 0 1 2.373 2.36 2.373 2.373 0 0 1-2.373 2.36" mask="url(#f)"/>
        </g>
        <path fill="#FFF" d="M98.18 48.184c-.734 0-1.33-.452-1.33-1.01 0-.557.596-1.009 1.33-1.009h-5.806c.735 0 1.331.452 1.331 1.01 0 .557-.596 1.01-1.33 1.01h5.806zM100.061 40.313c-.767 0-1.389-.472-1.389-1.054 0-.582.622-1.053 1.39-1.053H94c.767 0 1.389.471 1.389 1.053s-.622 1.054-1.39 1.054h6.061z"/>
        <g>
            <path fill="#FFF" d="M74.836 63.234H30.504a1.153 1.153 0 0 1-1.156-1.15V33.438c0-.635.518-1.15 1.156-1.15h44.332c.64 0 1.157.515 1.157 1.15v28.646c0 .635-.518 1.15-1.157 1.15"/>
            <path fill="#FFF" d="M75.709 64.101H31.377a1.153 1.153 0 0 1-1.157-1.15V34.306c0-.635.518-1.15 1.157-1.15h44.332c.639 0 1.156.515 1.156 1.15V62.95c0 .635-.517 1.15-1.156 1.15"/>
            <path fill="#637AAB" d="M74.555 63.407H30.786a1.61 1.61 0 0 1-1.613-1.603V33.718c0-.095.078-.173.175-.173.096 0 .174.078.174.173v28.086c0 .693.567 1.256 1.264 1.256h43.769c.697 0 1.264-.563 1.264-1.256V33.718c0-.692-.567-1.256-1.264-1.256h-23.9a.174.174 0 0 1-.174-.174c0-.095.078-.173.174-.173h23.9c.89 0 1.613.72 1.613 1.603v28.086a1.61 1.61 0 0 1-1.613 1.603"/>
            <path fill="#FFF" d="M57.135 16.364l-5.968 21.147a.969.969 0 0 0 .677 1.195l19.165 5.346a.976.976 0 0 0 1.203-.67l.93-3.296.497-1.82 5.668-20.083a.969.969 0 0 0-.678-1.195l-15.08-4.206-6.413 3.578-.001.004z"/>
            <path fill="#637AAB" d="M57.135 16.364l.005.001-.005-.001zm.15.112l-5.95 21.082a.798.798 0 0 0 .557.98l19.164 5.347a.803.803 0 0 0 .988-.55l.93-3.296.497-1.82 5.667-20.083a.797.797 0 0 0-.556-.98L63.57 12.967l-6.287 3.508zm13.99 27.786c-.105 0-.21-.014-.314-.043l-19.164-5.346a1.144 1.144 0 0 1-.798-1.409l5.968-21.147v-.001l.001-.004a.173.173 0 0 1 .083-.104l6.412-3.578a.175.175 0 0 1 .133-.016l15.08 4.207c.611.17.97.803.798 1.409l-5.667 20.082-.496 1.82-.93 3.297a1.15 1.15 0 0 1-1.105.833z"/>
            <path fill="#637AAB" d="M57.585 16.32l3.625 1.012a.852.852 0 0 0 1.05-.586l1.017-3.605-5.692 3.18zm3.855 1.39c-.107 0-.216-.014-.324-.044l-4.031-1.125a.174.174 0 0 1-.039-.318l6.427-3.59a.175.175 0 0 1 .194.015c.055.043.079.116.06.183l-1.131 4.008c-.149.526-.632.871-1.156.871z"/>
            <path fill="#FFF" d="M70.234 20.613l-1.803 21.89a.974.974 0 0 1-1.053.886L47.54 41.774a.971.971 0 0 1-.894-1.044l.281-3.412.171-1.88 1.713-20.787a.974.974 0 0 1 1.053-.886l15.61 1.27 4.76 5.573v.005z"/>
            <path fill="#637AAB" d="M70.234 20.613h.001zm-20.45-6.678a.8.8 0 0 0-.8.73l-1.712 20.788-.171 1.88-.28 3.41a.8.8 0 0 0 .734.857l19.838 1.616a.802.802 0 0 0 .864-.727l1.798-21.823-4.667-5.463-15.539-1.265a.813.813 0 0 0-.066-.003zm17.676 29.63a1.19 1.19 0 0 1-.096-.003l-19.838-1.615a1.147 1.147 0 0 1-1.054-1.232l.281-3.411.172-1.88 1.712-20.788a1.148 1.148 0 0 1 1.24-1.044l15.612 1.27a.175.175 0 0 1 .118.062l4.76 5.572a.173.173 0 0 1 .041.13l-1.803 21.891a1.148 1.148 0 0 1-1.145 1.048z"/>
            <path fill="#637AAB" d="M65.603 15.467l-.307 3.731a.849.849 0 0 0 .778.913l3.754.305-4.225-4.95zm4.63 5.33a.16.16 0 0 1-.014-.001l-4.173-.34a1.196 1.196 0 0 1-1.098-1.286l.342-4.15a.174.174 0 0 1 .12-.15c.067-.022.141 0 .187.053l4.77 5.588a.173.173 0 0 1-.133.286z"/>
            <path fill="#FFF" d="M55.111 60.561L33.88 54.494a.969.969 0 0 1-.666-1.201l5.5-19.02a.976.976 0 0 1 1.205-.665l3.309.946 1.82.536 20.162 5.763a.969.969 0 0 1 .666 1.2L61.548 57.02l-6.432 3.543-.005-.002z"/>
            <path fill="#637AAB" d="M39.648 33.744a.799.799 0 0 0-.768.578L33.38 53.34a.792.792 0 0 0 .546.986l21.168 6.05 6.305-3.474 4.307-14.898a.791.791 0 0 0-.546-.986l-20.163-5.762-1.82-.537-3.308-.945a.803.803 0 0 0-.222-.031m15.468 26.992a.177.177 0 0 1-.053-.008L33.831 54.66a1.138 1.138 0 0 1-.785-1.415l5.498-19.019a1.14 1.14 0 0 1 .548-.685c.269-.149.58-.184.874-.1l3.309.946 1.82.537 20.162 5.762a1.138 1.138 0 0 1 .786 1.415l-4.327 14.967a.174.174 0 0 1-.083.103L55.2 60.714a.175.175 0 0 1-.084.022"/>
            <path fill="#637AAB" d="M57.242 55.993a.85.85 0 0 0-.816.612l-1.04 3.599 5.712-3.144-3.62-1.034a.86.86 0 0 0-.236-.033m-2.14 4.739a.173.173 0 0 1-.168-.221l1.156-4.001a1.198 1.198 0 0 1 1.485-.817l4.024 1.15a.174.174 0 0 1 .037.318l-6.45 3.55a.175.175 0 0 1-.085.021"/>
            <path fill="#FFF" d="M52.568 19.487L48.93 41.15a.97.97 0 0 0 .803 1.114l19.632 3.26a.975.975 0 0 0 1.124-.795l.567-3.377.297-1.863 3.455-20.573a.97.97 0 0 0-.803-1.115l-15.45-2.565-5.986 4.245v.005z"/>
            <path fill="#637AAB" d="M52.568 19.487h.006-.006zm.161.095l-3.627 21.597a.798.798 0 0 0 .66.915l19.632 3.26c.437.072.85-.22.923-.653l.567-3.376.296-1.862 3.456-20.575a.799.799 0 0 0-.66-.915L58.598 15.42l-5.869 4.162zm16.798 26.13a1.16 1.16 0 0 1-.19-.016l-19.633-3.26a1.145 1.145 0 0 1-.946-1.314l3.638-21.664v-.003l.001-.005a.174.174 0 0 1 .07-.11l5.988-4.244a.175.175 0 0 1 .13-.03l15.449 2.565a1.146 1.146 0 0 1 .946 1.315l-3.455 20.572-.296 1.863-.568 3.377a1.15 1.15 0 0 1-1.134.954z"/>
            <path fill="#637AAB" d="M53.01 19.395l3.715.617a.85.85 0 0 0 .98-.695l.62-3.693-5.314 3.771zm3.858.976c-.067 0-.133-.006-.2-.017l-4.13-.686a.173.173 0 1 1-.073-.312l6-4.258a.175.175 0 0 1 .194-.006c.06.037.091.106.08.176l-.69 4.106c-.053.314-.226.59-.487.774a1.196 1.196 0 0 1-.694.223z"/>
            <path fill="#ABE0F6" d="M66.207 30.884a.265.265 0 0 1-.043-.003l-9.047-1.503a.26.26 0 1 1 .086-.513l9.047 1.502a.26.26 0 0 1-.043.517"/>
            <path fill="#637AAB" d="M69.44 35.976c-.01 0-.02 0-.03-.002l-17.028-2.828a.174.174 0 1 1 .057-.342l17.029 2.828a.174.174 0 0 1-.029.344M69.743 34.17l-.03-.003-17.028-2.827a.174.174 0 1 1 .058-.342l17.028 2.827a.174.174 0 0 1-.028.345M60.685 36.38c-.01 0-.019-.001-.028-.003l-8.579-1.424a.174.174 0 1 1 .058-.343l8.578 1.425a.174.174 0 0 1-.029.345M63.334 26.697c-.283 0-.582-.022-.895-.074-2.153-.358-3.219-1.722-3.263-1.78a.173.173 0 0 1 .033-.243.175.175 0 0 1 .245.033c.01.013 1.032 1.314 3.042 1.648 2.009.333 3.436-.667 3.45-.677a.175.175 0 0 1 .244.04.173.173 0 0 1-.04.241c-.053.039-1.151.812-2.816.812M59.06 23.05a.5.5 0 1 0-.987-.164.5.5 0 1 0 .987.164M67.676 24.48a.5.5 0 1 0-.986-.164.5.5 0 1 0 .986.164M76.685 32.797a.177.177 0 0 1-.048-.007c-3.418-.97-3.71-3.698-3.625-4.196a.174.174 0 0 1 .2-.142.174.174 0 0 1 .144.2c-.005.027-.113 2.815 3.376 3.805a.173.173 0 0 1-.047.34M51.614 25.34a.177.177 0 0 1-.035-.003c-.026-.005-2.729-.793-4.345-4.155a.173.173 0 0 1 .083-.231.175.175 0 0 1 .232.081c1.38 2.873 3.7 3.884 4.1 3.965a.173.173 0 0 1-.035.343M58.27 46.204c-.01 0-.02 0-.029-.002a.174.174 0 0 1-.143-.2l.383-2.284a.174.174 0 0 1 .345.057l-.384 2.284a.174.174 0 0 1-.172.145M60.06 46.502a.174.174 0 0 1-.172-.202l.384-2.285a.175.175 0 0 1 .344.058l-.384 2.284a.174.174 0 0 1-.172.145"/>
            <path fill="#FFF" d="M75.993 37.05H54.195c-.42 0-.82-.183-1.094-.502l-5.43-6.328a1.441 1.441 0 0 0-1.094-.503H30.786c-.794 0-1.438.64-1.438 1.43v30.658c0 .79.644 1.43 1.438 1.43h43.769c.794 0 1.438-.64 1.438-1.43V37.05z"/>
            <path fill="#D6F3F9" d="M76.865 37.918H55.068c-.421 0-.821-.184-1.095-.502l-5.429-6.33a1.441 1.441 0 0 0-1.094-.501H31.658c-.794 0-1.438.64-1.438 1.43v30.657c0 .79.644 1.43 1.438 1.43h43.77c.794 0 1.437-.64 1.437-1.43V37.918z"/>
            <path fill="#637AAB" d="M30.786 29.891c-.697 0-1.264.564-1.264 1.256v30.658c0 .692.567 1.256 1.264 1.256h43.769c.697 0 1.264-.564 1.264-1.256V37.224H54.195c-.473 0-.92-.205-1.227-.563l-5.43-6.329c-.24-.28-.59-.441-.96-.441H30.786zm43.769 33.517h-43.77a1.61 1.61 0 0 1-1.612-1.603V31.147a1.61 1.61 0 0 1 1.613-1.603h15.792c.472 0 .92.205 1.226.563l5.43 6.329c.24.28.59.441.961.441h21.798c.096 0 .175.078.175.174v24.754a1.61 1.61 0 0 1-1.613 1.603z"/>
            <path fill="#637AAB" d="M73.697 56.919c-.126 0-.228-.078-.228-.174v-.852c0-.096.102-.174.228-.174.127 0 .23.078.23.174v.852c0 .096-.103.174-.23.174M73.697 58.263c-.126 0-.228-.077-.228-.173v-.52c0-.096.102-.174.228-.174.127 0 .23.078.23.173v.52c0 .097-.103.174-.23.174M72.35 61.72h-1.216a.174.174 0 0 1-.174-.174c0-.096.078-.173.174-.173h1.216c.617 0 1.119-.5 1.119-1.113v-1.39a.174.174 0 1 1 .349 0v1.39c0 .805-.659 1.46-1.468 1.46M69.971 61.828H68.67c-.097 0-.175-.102-.175-.228 0-.125.078-.227.175-.227h1.301c.096 0 .175.102.175.227 0 .126-.079.228-.175.228"/>
            <path fill="#FFF" d="M49.8 40.232s-2.379 0-7.673-1.828c-5.294-1.827-7.75-4.37-7.75-4.37s-2.455 2.543-7.749 4.37c-5.294 1.828-7.673 1.828-7.673 1.828s-2.148 6.04.768 12.715c2.915 6.676 6.138 9.537 8.286 11.444 2.149 1.908 6.369 3.497 6.369 3.497s4.22-1.59 6.368-3.497c2.148-1.907 5.37-4.768 8.287-11.444 2.915-6.675.767-12.715.767-12.715"/>
            <path fill="#ABE0F6" d="M50.511 40.93s-2.378 0-7.672-1.829c-5.294-1.828-7.75-4.37-7.75-4.37s-2.455 2.542-7.75 4.37c-5.293 1.828-7.672 1.828-7.672 1.828s-2.148 6.04.767 12.715c2.916 6.676 6.138 9.537 8.287 11.444 2.148 1.907 6.368 3.497 6.368 3.497s4.22-1.59 6.369-3.497c2.148-1.907 5.37-4.768 8.286-11.444 2.916-6.675.767-12.715.767-12.715"/>
            <path fill="#637AAB" d="M19.083 40.402c-.268.853-1.838 6.436.8 12.476 2.9 6.64 6.115 9.495 8.242 11.384 1.96 1.74 5.725 3.235 6.253 3.44.528-.205 4.293-1.7 6.252-3.44 2.127-1.889 5.342-4.743 8.243-11.384 2.638-6.04 1.067-11.623.799-12.476-.562-.025-2.954-.229-7.602-1.834-4.617-1.593-7.123-3.76-7.692-4.293-.57.533-3.076 2.7-7.693 4.293-4.648 1.605-7.04 1.809-7.602 1.834m15.295 27.66a.174.174 0 0 1-.062-.012c-.174-.065-4.275-1.622-6.423-3.53-2.15-1.908-5.4-4.793-8.33-11.503-1.52-3.481-1.65-6.785-1.491-8.943.172-2.34.697-3.837.719-3.9a.175.175 0 0 1 .164-.115c.024 0 2.422-.025 7.616-1.818 5.194-1.794 7.656-4.302 7.68-4.327a.175.175 0 0 1 .252 0c.025.025 2.494 2.536 7.681 4.327 5.194 1.793 7.592 1.818 7.616 1.818.074 0 .14.046.164.115.023.063.547 1.56.72 3.9.158 2.158.029 5.462-1.491 8.943-2.931 6.71-6.18 9.595-8.33 11.504-2.149 1.907-6.25 3.464-6.424 3.53a.174.174 0 0 1-.061.01"/>
            <path fill="#637AAB" d="M31.458 64.822a.174.174 0 0 1-.097-.03 28.018 28.018 0 0 1-3.094-2.437.173.173 0 0 1-.012-.245.175.175 0 0 1 .246-.012c1 .904 2.028 1.713 3.056 2.407a.173.173 0 0 1-.099.317M27.855 61.97a.174.174 0 0 1-.121-.049 33.4 33.4 0 0 1-.435-.424.173.173 0 0 1 0-.245.175.175 0 0 1 .246 0c.145.143.288.283.43.42a.173.173 0 0 1-.12.298M26.992 61.109a.174.174 0 0 1-.124-.051 14.91 14.91 0 0 1-.434-.443.173.173 0 0 1 .008-.245.175.175 0 0 1 .247.008 14.486 14.486 0 0 0 .426.435.173.173 0 0 1-.123.296M48.628 46.365h-.002a.174.174 0 0 1-.172-.176c.033-2.377-.433-4-.438-4.015a.174.174 0 1 1 .335-.097c.02.067.486 1.684.452 4.117a.174.174 0 0 1-.175.17M47.972 50.86a.173.173 0 0 1-.168-.221c.259-.903.443-1.841.547-2.79a.174.174 0 0 1 .192-.153c.096.01.165.096.155.191a17.269 17.269 0 0 1-.558 2.847.174.174 0 0 1-.168.126M47.381 52.57a.173.173 0 0 1-.162-.239c.15-.365.287-.74.41-1.116a.175.175 0 0 1 .332.107c-.125.383-.266.767-.418 1.14a.175.175 0 0 1-.162.108"/>
            <path fill="#FF9E81" d="M29.122 43.291c-.053.538-.425.943-.83.904-.407-.04-.693-.507-.64-1.046.052-.538.423-.943.83-.904.406.04.692.508.64 1.046M39.523 43.651c-.052.539-.424.943-.83.904-.406-.04-.693-.507-.64-1.045.052-.539.424-.944.83-.904.406.039.693.507.64 1.045"/>
            <path fill="#637AAB" d="M32.075 43.627a.525.525 0 0 0-.496.68 2.366 2.366 0 0 0 2.29 1.65 2.365 2.365 0 0 0 2.245-1.708.526.526 0 0 0-.515-.669l-3.524.047zM30.797 41.01a.456.456 0 0 1-.302-.173.44.44 0 0 1 .07-.619.43.43 0 0 1 .328-.083c.116.017.22.078.293.172a.44.44 0 0 1-.07.619.43.43 0 0 1-.319.084M36.805 40.936a.455.455 0 0 1-.302-.173.44.44 0 0 1 .07-.619.445.445 0 0 1 .62.089.45.45 0 0 1 .094.325.424.424 0 0 1-.482.378M50.918 47.792a.174.174 0 0 1-.015-.346 4.721 4.721 0 0 0 3.178-1.65 4.68 4.68 0 0 0 .981-2.008 3.56 3.56 0 0 0 .05-.418c.047-.571.118-1.434.905-1.442h.002a.174.174 0 0 1 .002.347c-.436.004-.508.468-.562 1.123-.014.171-.027.333-.056.464a5.027 5.027 0 0 1-1.055 2.156 5.073 5.073 0 0 1-3.43 1.774M18.298 48.331a5.073 5.073 0 0 1-3.43-1.773 5.03 5.03 0 0 1-1.034-2.063c-.033-.138-.054-.283-.075-.424-.083-.569-.16-.922-.652-1.022a.173.173 0 1 1 .07-.34c.758.153.852.796.928 1.312.02.14.04.27.069.394.17.71.502 1.374.961 1.92a4.72 4.72 0 0 0 3.178 1.65.174.174 0 0 1-.015.346"/>
        </g>
    </g>
</svg>
